<svg width="16.000000" height="16.000000" viewBox="0 0 16 16" fill="none" xmlns="http://www.w3.org/2000/svg" xmlns:xlink="http://www.w3.org/1999/xlink">
	<defs>
		<clipPath id="clip86_26141">
			<rect id="bi:facebook" width="16.000000" height="16.000000" fill="white" fill-opacity="0"/>
		</clipPath>
	</defs>
	<rect id="bi:facebook" width="16.000000" height="16.000000" fill="#FFFFFF" fill-opacity="0"/>
	<g clip-path="url(#clip86_26141)">
		<path id="Vector" d="M16 8.04883C16 3.60303 12.418 -0.000976562 8 -0.000976562C3.58008 0 -0.00195312 3.60303 -0.00195312 8.0498C-0.00195312 12.0669 2.92383 15.397 6.74805 16.001L6.74805 10.376L4.71777 10.376L4.71777 8.0498L6.75 8.0498L6.75 6.2749C6.75 4.25781 7.94531 3.14404 9.77246 3.14404C10.6484 3.14404 11.5635 3.30078 11.5635 3.30078L11.5635 5.28125L10.5537 5.28125C9.56152 5.28125 9.25098 5.90186 9.25098 6.53906L9.25098 8.04883L11.4688 8.04883L11.1152 10.375L9.25 10.375L9.25 16C13.0742 15.396 16 12.0659 16 8.04883Z" fill="#737373" fill-opacity="1.000000" fill-rule="nonzero"/>
	</g>
</svg>
