<svg width="16.000000" height="16.000000" viewBox="0 0 16 16" fill="none" xmlns="http://www.w3.org/2000/svg" xmlns:xlink="http://www.w3.org/1999/xlink">
	<desc>
			Created with Pixso.
	</desc>
	<defs>
		<clipPath id="clip86_26225">
			<rect id="cib:codewars" width="16.000000" height="16.000000" fill="white" fill-opacity="0"/>
		</clipPath>
	</defs>
	<rect id="cib:codewars" width="16.000000" height="16.000000" fill="#FFFFFF" fill-opacity="0"/>
	<g clip-path="url(#clip86_26225)">
		<path id="Vector" d="M0.507812 8.13281L0.453125 8.10693C0.333008 8.03906 0.235352 7.93652 0.174805 7.8125C0.0869141 7.66016 0.0400391 7.48828 0.0390625 7.3125L0.0517578 7.22656C0.0517578 7.09375 0.0859375 6.97412 0.146484 6.85938L0.200195 6.76074C0.226562 6.70605 0.265625 6.65918 0.299805 6.61475C0.318359 6.59229 0.331055 6.56641 0.336914 6.53809C0.342773 6.50977 0.341797 6.48047 0.333984 6.45312L0.299805 6.34619C0.258789 6.2168 0.237305 6.08301 0.234375 5.94775L0.213867 5.86719C0.213867 5.71875 0.25293 5.57275 0.34668 5.46582L0.414062 5.37988C0.460938 5.3125 0.53418 5.27295 0.614258 5.24707C0.679688 5.22607 0.726562 5.15869 0.734375 5.08057L0.748047 4.854C0.748047 4.67432 0.833984 4.50732 0.966797 4.38525L1.12793 4.26514C1.15918 4.2334 1.19336 4.2002 1.21875 4.14502C1.25293 4.10596 1.26074 4.05127 1.25293 4.01221C1.24023 3.94727 1.25293 3.92627 1.28711 3.91797C1.39453 3.95947 1.46191 3.94678 1.50879 3.89209L1.59473 3.78027L1.83398 3.51221C1.86914 3.47559 1.89258 3.43018 1.90137 3.38037C1.91113 3.33105 1.90527 3.27979 1.88574 3.2334L1.80762 3.05908C1.79492 3.02002 1.80762 2.97314 1.8418 2.95996C1.92773 2.95996 1.98828 2.9917 2.01367 3.0459L2.04004 3.09326C2.08203 3.17334 2.17578 3.21289 2.24023 3.1792C2.3623 3.13477 2.49121 3.11279 2.62012 3.11426L2.83398 3.11426C2.98047 3.11426 3.09961 3.0127 3.12891 2.85889C3.1543 2.67383 3.21973 2.52539 3.31348 2.42676C3.41504 2.31201 3.52734 2.22607 3.66016 2.15869C3.83496 2.06738 3.94141 1.93213 3.97461 1.76025C4.02246 1.54639 4.13379 1.39307 4.28711 1.29395L4.7959 1.00732L4.94141 0.918945C5.02734 0.867188 5.1084 0.798828 5.17578 0.71875L5.30859 0.55957C5.36621 0.496094 5.44043 0.449707 5.52246 0.426758C5.58789 0.405762 5.68164 0.392578 5.76172 0.400391L6.02734 0.418457C6.16016 0.418457 6.2666 0.452637 6.37402 0.499023L6.44141 0.533203C6.50879 0.559082 6.57422 0.545898 6.6084 0.499023L6.66797 0.464844L6.9541 0.165527C6.98438 0.133789 7.02051 0.109863 7.06152 0.0957031C7.10254 0.081543 7.14648 0.078125 7.18945 0.0849609C7.27539 0.0981445 7.36133 0.131836 7.44141 0.17334C7.56152 0.23877 7.66016 0.264648 7.77539 0.264648L7.84277 0.264648C7.98828 0.264648 8.13379 0.285645 8.28223 0.318848L8.38184 0.345215C8.42969 0.356934 8.48145 0.354492 8.52832 0.337891C8.5752 0.321289 8.61719 0.291016 8.64746 0.250977C8.65137 0.243164 8.6582 0.236816 8.66602 0.231445C8.67285 0.226562 8.68164 0.223145 8.69141 0.222168C8.7002 0.220703 8.70898 0.22168 8.71777 0.224609C8.72656 0.227051 8.73438 0.231934 8.74121 0.238281C8.76172 0.250977 8.7666 0.26416 8.77539 0.285156C8.78809 0.417969 8.86914 0.519531 8.97559 0.550781L9.08301 0.584473C9.19434 0.618652 9.2959 0.691406 9.36133 0.785156C9.42871 0.884277 9.50977 0.985352 9.60059 1.05078L9.66797 1.11816C9.70117 1.15039 9.74121 1.17432 9.78418 1.18945C9.82812 1.2041 9.875 1.20947 9.9209 1.2041L10.3135 1.2041C10.4746 1.2041 10.6289 1.23242 10.7822 1.29785C10.9287 1.36572 11.082 1.37842 11.2197 1.32422C11.3682 1.27979 11.5225 1.25928 11.6758 1.27979L11.9619 1.32422C12.0947 1.33936 12.2275 1.40479 12.3086 1.50635L12.3428 1.53809C12.4072 1.60547 12.4756 1.69141 12.541 1.78564C12.5625 1.82666 12.5947 1.86084 12.6348 1.88428C12.6748 1.90771 12.7207 1.91943 12.7666 1.91846L13.1807 1.91846C13.2822 1.91846 13.3818 1.93945 13.4629 1.98584C13.5488 2.05127 13.6211 2.11914 13.6895 2.18652L13.7539 2.27246C13.835 2.3667 13.874 2.4917 13.8682 2.62646C13.8682 2.7334 13.9492 2.82471 14.0537 2.82471L14.1895 2.83984C14.2832 2.83984 14.3613 2.90527 14.4082 2.99121L14.4756 3.12646L14.6475 3.51221C14.6729 3.57129 14.6826 3.63574 14.6758 3.69971C14.6758 3.76465 14.6943 3.81934 14.7412 3.8457L14.8086 3.89258C14.8516 3.9248 14.8857 3.96777 14.9062 4.01709C14.9277 4.06641 14.9355 4.12061 14.9287 4.17383L14.8818 4.48633L14.8682 4.61963C14.8633 4.65723 14.8672 4.69531 14.8818 4.73047C14.8955 4.76562 14.9189 4.79688 14.9492 4.81982C15.0479 4.88525 15.0947 4.97363 15.0996 5.07275L15.0996 5.20557C15.0996 5.27295 15.0869 5.354 15.0352 5.40625C14.9902 5.46338 14.9668 5.53418 14.9678 5.60645L14.9883 5.76025C14.9883 5.86719 15.0537 5.96045 15.1211 6.02539C15.166 6.05908 15.2031 6.10156 15.2305 6.1499C15.2588 6.19824 15.2764 6.25195 15.2832 6.30713C15.3086 6.47363 15.3145 6.60645 15.3145 6.73975L15.3145 6.89307C15.3145 6.94775 15.3145 7 15.3359 7.05225C15.3506 7.10107 15.3809 7.14404 15.4219 7.17432L15.5547 7.27344C15.6904 7.35938 15.7832 7.47412 15.8359 7.62744C15.9033 7.77344 15.9219 7.92725 15.9219 8.08057L15.9219 8.13232C15.9219 8.25244 15.9092 8.37988 15.8701 8.49219C15.8359 8.60205 15.8428 8.72021 15.8877 8.82568C15.9424 8.91943 15.9766 9.02588 15.9893 9.14062C16.0156 9.27344 16.0029 9.40625 15.9551 9.51318L15.9424 9.56006C15.9082 9.6416 15.8555 9.71484 15.7891 9.77344C15.7217 9.84082 15.6562 9.88037 15.6172 9.92725C15.5752 9.96582 15.5498 10.0342 15.5703 10.0938L15.5879 10.1875C15.6221 10.3203 15.6221 10.4531 15.5879 10.5732L15.5879 10.6274C15.5625 10.7266 15.5234 10.8125 15.4814 10.8931C15.4365 10.978 15.3672 11.0474 15.2832 11.0938L15.1816 11.1587C15.1572 11.1748 15.1367 11.1968 15.123 11.2227C15.1084 11.2485 15.1016 11.2778 15.1006 11.3071C15.1016 11.3706 15.0781 11.4316 15.0361 11.479L14.9346 11.6147C14.8691 11.7007 14.7832 11.7734 14.6895 11.8125C14.6055 11.8716 14.5264 11.9385 14.4551 12.0132C14.3877 12.0913 14.3389 12.1826 14.3086 12.2812C14.2998 12.333 14.2725 12.3804 14.2324 12.4141C14.1914 12.4478 14.1406 12.4663 14.0879 12.4658L13.7285 12.4658C13.6338 12.4658 13.5488 12.5337 13.5088 12.6147C13.4717 12.7041 13.4199 12.7866 13.3555 12.8594C13.291 12.9268 13.2451 13.0093 13.2197 13.0991C13.207 13.1797 13.1416 13.2344 13.0742 13.2061C13.0361 13.189 12.9941 13.186 12.9541 13.1987C12.915 13.2114 12.8818 13.2378 12.8604 13.2734C12.793 13.3906 12.7109 13.4985 12.6152 13.5942L12.5684 13.6328C12.4805 13.7007 12.3682 13.7529 12.2666 13.7529C12.1465 13.7529 12.0869 13.8076 12.0684 13.8862C12.0479 13.9609 12.0332 14.0376 12.0273 14.1152C12.0127 14.1899 11.9912 14.2632 11.9619 14.334L11.9277 14.373C11.8604 14.4746 11.8076 14.5737 11.7402 14.6597L11.7148 14.7012C11.6289 14.813 11.5137 14.9014 11.3809 14.9331C11.2393 14.9805 11.0908 15.0034 10.9414 15.0005L10.8467 15.0005C10.8105 15.0024 10.7754 15.0137 10.7441 15.0322C10.7129 15.0508 10.6865 15.0767 10.668 15.1074L10.6289 15.1753L10.5869 15.2529L10.501 15.4014C10.4697 15.4595 10.4268 15.5103 10.375 15.5513C10.3242 15.5923 10.2646 15.623 10.2012 15.6411C10.0615 15.6753 9.91797 15.6885 9.77441 15.6802L9.66797 15.667C9.57324 15.667 9.48828 15.6411 9.40234 15.5996C9.33496 15.5737 9.24023 15.5996 9.20117 15.667C9.14453 15.7495 9.0625 15.8105 8.9668 15.8418L8.7666 15.9067C8.62891 15.9404 8.48438 15.9404 8.34668 15.9067L8.24023 15.8726C8.17285 15.8677 8.1084 15.8452 8.05273 15.8076C7.99219 15.7749 7.92285 15.7607 7.85449 15.7661L7.76562 15.7817C7.63281 15.7944 7.51367 15.7817 7.39355 15.7476L7.21387 15.7061C7.13086 15.6802 7.06055 15.626 7.01367 15.5527C6.99316 15.5161 6.96387 15.4854 6.92871 15.4619C6.89453 15.439 6.85449 15.4243 6.81348 15.4194L6.59961 15.4194C6.4668 15.4014 6.34668 15.3545 6.26562 15.2529L6.00098 15.0005L5.90625 14.9199L5.76074 14.813L5.6748 14.748C5.57031 14.6763 5.45117 14.6309 5.3252 14.6152L4.92676 14.5474C4.88574 14.5474 4.85938 14.5347 4.82031 14.5264L4.66699 14.4927C4.59863 14.4795 4.5332 14.4277 4.4873 14.3594C4.44824 14.2944 4.37305 14.2656 4.30762 14.2944C4.1748 14.3467 4.06836 14.3594 3.96094 14.3804L3.86719 14.3804C3.69727 14.395 3.52637 14.3657 3.37207 14.2944C3.21289 14.2271 3.10645 14.1279 3.00781 14C2.9668 13.9409 2.91602 13.8906 2.85547 13.8521C2.7959 13.813 2.72852 13.7861 2.6582 13.7734L2.47363 13.7344C2.33496 13.7061 2.20312 13.6509 2.08594 13.5732C1.95215 13.479 1.88477 13.3936 1.83301 13.2866C1.7793 13.1831 1.74707 13.0693 1.73926 12.9531L1.73926 12.9009C1.72559 12.7656 1.63184 12.646 1.50684 12.6147C1.37207 12.5752 1.24609 12.5068 1.13965 12.4141C1.09277 12.3696 1.05566 12.3159 1.03027 12.2563C1.00488 12.1968 0.991211 12.1323 0.991211 12.0674L1.00684 11.7729C1.00684 11.6587 0.972656 11.5596 0.892578 11.4863C0.8125 11.4062 0.759766 11.3071 0.759766 11.2002L0.738281 10.9604C0.722656 10.7852 0.693359 10.6108 0.652344 10.4395C0.613281 10.2861 0.673828 10.1318 0.798828 10.0596L0.845703 10.0254C0.878906 10.0029 0.90332 9.96875 0.913086 9.9292C0.923828 9.88965 0.918945 9.84814 0.900391 9.81201L0.845703 9.74707C0.791992 9.68604 0.722656 9.64014 0.645508 9.61426C0.592773 9.59863 0.580078 9.54639 0.580078 9.5127L0.645508 9.43213C0.663086 9.40967 0.673828 9.38135 0.673828 9.35254C0.673828 9.32373 0.663086 9.29541 0.645508 9.27295C0.59668 9.22168 0.566406 9.15576 0.558594 9.08545L0.545898 8.61963C0.545898 8.52539 0.558594 8.43213 0.584961 8.34082C0.613281 8.26074 0.584961 8.1665 0.506836 8.12744L0.507812 8.13281ZM7.10645 7.25244C7.15332 7.20557 7.14551 7.11963 7.10645 7.08594C7.04395 7.03711 6.99121 6.97607 6.95312 6.90674L6.88574 6.79932C6.84082 6.71533 6.78223 6.63916 6.71387 6.57324L6.7002 6.56006C6.63379 6.50635 6.58203 6.4375 6.54688 6.35938C6.53027 6.32861 6.52148 6.29443 6.52148 6.25928C6.52148 6.22412 6.53027 6.18994 6.54688 6.15918L6.58594 6.09424C6.62891 6.02148 6.65234 5.93896 6.65332 5.85449L6.65332 5.82617C6.65039 5.75488 6.62695 5.68652 6.58594 5.62793C6.55664 5.56836 6.53516 5.50537 6.52148 5.44043L6.52148 5.40137C6.51172 5.36133 6.51074 5.31885 6.51953 5.27832C6.5293 5.23779 6.54688 5.19971 6.57324 5.16699C6.62793 5.08105 6.66699 5.00049 6.6875 4.90137L6.6875 4.88623C6.69922 4.84961 6.70312 4.81104 6.69824 4.77344C6.69336 4.73535 6.67969 4.69922 6.65918 4.66699C6.63867 4.63574 6.62598 4.6001 6.62109 4.56348C6.61719 4.52637 6.62109 4.48877 6.63281 4.45361L6.67969 4.32031C6.71875 4.20068 6.78125 4.09424 6.85938 4L6.95312 3.90088L7.02148 3.82031L7.06055 3.78174C7.08008 3.75977 7.0918 3.73242 7.09375 3.70312C7.09668 3.67383 7.08887 3.64453 7.07324 3.62012C7.03809 3.55957 7.02441 3.48877 7.03418 3.41943L7.04688 3.32568C7.06836 3.19238 7.11426 3.06006 7.2002 2.95312L7.22656 2.92725C7.3252 2.79395 7.45312 2.70557 7.59863 2.65918L7.78125 2.59424C7.85938 2.56787 7.91504 2.47949 7.91504 2.39355C7.91504 2.28662 7.94824 2.19287 8.00781 2.10693L8.04004 2.07324C8.10742 1.96094 8.18848 1.84668 8.24023 1.72656L8.28711 1.64062C8.2998 1.62012 8.30664 1.59717 8.30762 1.57324C8.30762 1.46094 8.24023 1.35938 8.13379 1.354L7.8418 1.33301C7.67578 1.31982 7.50879 1.33301 7.34668 1.33301L6.78223 1.40039C6.69336 1.40039 6.62891 1.46533 6.62012 1.55957C6.61914 1.604 6.60547 1.64697 6.5791 1.68262C6.55273 1.71826 6.5166 1.74561 6.47461 1.76025L6.23535 1.8252L6.16797 1.84619L5.9668 1.91357C5.89355 1.9375 5.82617 1.97656 5.76855 2.02832C5.71094 2.07959 5.66504 2.14258 5.63379 2.21289L5.58203 2.29883C5.5127 2.44678 5.40137 2.57031 5.26074 2.65283C5.12793 2.73926 5.06055 2.87939 5.04785 3.03857L5.04785 3.10596C5.03418 3.23926 4.99316 3.37158 4.91504 3.46533L4.88086 3.52002C4.85449 3.55078 4.83691 3.58838 4.83105 3.62842C4.8252 3.66846 4.83008 3.70947 4.84668 3.74658C4.88086 3.82471 4.90137 3.91309 4.89355 3.99902L4.89355 4.35303C4.89258 4.39551 4.87988 4.43652 4.85547 4.47119C4.83203 4.50635 4.79883 4.53418 4.76074 4.55127C4.7168 4.56689 4.67676 4.59375 4.64551 4.62891C4.61426 4.66357 4.5918 4.70605 4.58105 4.75146L4.54688 4.88477C4.5332 4.94922 4.53809 5.01709 4.56152 5.0791C4.58496 5.14111 4.62598 5.19482 4.67969 5.2334C4.78711 5.31152 4.85449 5.43164 4.88086 5.58008L4.88086 5.7002C4.90137 5.83301 4.97461 5.96533 5.09375 6.03369C5.21387 6.11426 5.30762 6.23389 5.35938 6.36719L5.39355 6.47412C5.41602 6.54004 5.45703 6.59814 5.51172 6.6416C5.56641 6.68506 5.63184 6.71191 5.70117 6.71924L5.74023 6.71924C5.86035 6.71924 5.9668 6.78662 6.03418 6.89355C6.09961 7.00049 6.20703 7.07324 6.32617 7.09424L6.51367 7.146C6.62793 7.18018 6.73535 7.24023 6.82129 7.32568L6.83398 7.34082C6.86914 7.36719 6.91309 7.37891 6.95703 7.37354C7.00098 7.36816 7.04004 7.34619 7.06836 7.3125L7.11523 7.26074L7.10645 7.25244ZM7.86621 6.64062C7.93164 6.67969 8 6.65869 8.02539 6.59912L8.04688 6.56738C8.09375 6.47363 8.15332 6.37988 8.21875 6.29932L8.35449 6.09912C8.37207 6.09912 8.37988 6.08594 8.38574 6.07324L8.54688 5.85938C8.61426 5.79443 8.69336 5.74756 8.78613 5.74756C8.8291 5.74756 8.87109 5.73535 8.90723 5.71143C8.94238 5.68799 8.9707 5.6543 8.9873 5.61475C9.0127 5.52051 9.05176 5.43213 9.13281 5.35938L9.16699 5.32031C9.23438 5.25293 9.2998 5.21924 9.36719 5.1875C9.45312 5.17432 9.53418 5.15918 9.61523 5.15918L9.81348 5.15918C9.89355 5.15918 9.96191 5.12744 10.001 5.06006C10.04 4.99268 10.0996 4.94824 10.167 4.91406L10.2344 4.88574C10.3418 4.84082 10.4609 4.80762 10.5811 4.79443L10.7139 4.78174C10.7949 4.78174 10.8809 4.78174 10.9619 4.82617C11.0264 4.87305 11.1152 4.86768 11.1807 4.81299L11.2275 4.78711C11.3262 4.71973 11.4414 4.66699 11.5615 4.6543L11.5742 4.6543C11.7021 4.63135 11.832 4.62451 11.9619 4.63281L12.0273 4.63281C12.1602 4.6543 12.2744 4.70068 12.3604 4.79932L12.3818 4.82568C12.4492 4.89307 12.5537 4.94824 12.6475 4.94824L12.7617 4.94824C12.7959 4.94824 12.8262 4.93262 12.8477 4.90088C12.8701 4.87695 12.9004 4.8623 12.9336 4.85938L13.001 4.85938C13.0947 4.85938 13.1807 4.88574 13.2666 4.91406L13.3809 4.96094C13.4883 4.99268 13.5996 5.02588 13.7148 5.03906L13.7949 5.03906C13.8467 5.03906 13.8809 5.00732 13.8809 4.96094C13.8838 4.89551 13.8672 4.83008 13.834 4.77344L13.7871 4.6665C13.7354 4.58057 13.6934 4.48682 13.6543 4.40088L13.6406 4.36719C13.624 4.33643 13.6152 4.30176 13.6152 4.2666C13.6152 4.23193 13.624 4.19727 13.6406 4.1665L13.6406 4.13232C13.6475 4.10596 13.6445 4.07812 13.6318 4.05371C13.6201 4.0293 13.5986 4.00977 13.5732 3.99951L13.5215 3.99951C13.416 3.96777 13.3232 3.90527 13.2539 3.81982L13.1885 3.75244C13.1211 3.6875 13.082 3.58594 13.0527 3.48682C13.0215 3.40088 12.9492 3.3335 12.8555 3.3335L12.5732 3.3335C12.5244 3.32666 12.4775 3.31006 12.4355 3.28516C12.3926 3.26025 12.3555 3.22705 12.3262 3.1875L12.2998 3.15332C12.252 3.08398 12.2139 3.00781 12.1885 2.92725C12.1543 2.85938 12.0811 2.81982 12.0137 2.84082L11.9326 2.86719C11.7998 2.91406 11.668 2.93213 11.5342 2.91895L11.4277 2.90625C11.3135 2.90625 11.2061 2.85889 11.1201 2.79395L11.0527 2.74707C11.002 2.70801 10.9453 2.67627 10.8857 2.65283C10.8213 2.62695 10.7656 2.64014 10.7275 2.68701L10.6934 2.72607C10.625 2.79639 10.5371 2.84326 10.4404 2.85889L10.0811 2.87988C10.0127 2.88281 9.94824 2.91162 9.90137 2.96045C9.84961 3.00684 9.78711 3.03809 9.71875 3.05176L9.70605 3.05176C9.64062 3.05176 9.57324 3.09863 9.50781 3.14551L9.50781 3.15869C9.47656 3.19092 9.43848 3.21631 9.39746 3.2334C9.35547 3.25098 9.31152 3.26025 9.26562 3.26025L9.24023 3.27295C9.15918 3.27295 9.08105 3.27295 9.00098 3.29395L8.91992 3.29395C8.80762 3.31201 8.71973 3.40625 8.69336 3.52588L8.66797 3.67969C8.64648 3.78418 8.60059 3.88232 8.53418 3.96582C8.4668 4.04639 8.38574 4.09912 8.28711 4.09912L8.1748 4.09912C8.10742 4.11475 8.04004 4.1875 8.05273 4.26562C8.06836 4.37988 8.05273 4.479 8.03418 4.58057L8.00879 4.69238C7.99707 4.74023 7.97461 4.78418 7.94336 4.82129C7.91113 4.8584 7.87109 4.88721 7.82617 4.90625L7.78711 4.92725L7.77441 4.92725C7.73535 4.95312 7.70703 5.01318 7.74023 5.06006C7.77832 5.11963 7.79492 5.19043 7.78711 5.26074L7.76562 5.47412C7.76172 5.55127 7.73926 5.62598 7.70117 5.69287C7.68164 5.72266 7.6709 5.75635 7.66797 5.7915C7.66602 5.82666 7.67285 5.86182 7.68848 5.89355L7.75293 6.03955C7.78711 6.10547 7.79492 6.18164 7.77441 6.25293C7.75098 6.31738 7.74219 6.38574 7.74805 6.45361C7.74805 6.521 7.78711 6.58643 7.8418 6.61523L7.86621 6.64062ZM13.1328 11.4609C13.2002 11.5259 13.2988 11.5522 13.3799 11.5L13.5127 11.4141C13.583 11.3657 13.6348 11.2949 13.6592 11.2134L13.6592 11.2007L13.7266 11L13.7656 10.9326L13.7939 10.8677L13.8203 10.8203C13.832 10.793 13.8506 10.7681 13.874 10.748C13.8965 10.7285 13.9238 10.7139 13.9531 10.7061L13.9795 10.6929C14.0332 10.6802 14.0674 10.6279 14.0674 10.5732C14.0674 10.5078 14.0986 10.4531 14.1328 10.4067L14.1875 10.3594L14.3203 10.1875L14.3203 10.1743C14.3594 10.1196 14.3867 10.0576 14.4004 9.99219C14.4111 9.9248 14.4014 9.85547 14.3721 9.79395L14.3594 9.76562C14.3359 9.71045 14.3203 9.65283 14.3125 9.59375L14.2939 9.40625L14.2734 9.20557C14.2734 9.14062 14.2988 9.07275 14.3408 9.00732C14.3848 8.95312 14.4189 8.88525 14.4473 8.81982L14.4473 8.79395L14.4609 8.78125C14.4736 8.71338 14.4395 8.64551 14.3799 8.64551C14.3125 8.61426 14.2471 8.55957 14.2266 8.479L14.2051 8.43994C14.1729 8.32275 14.1553 8.20215 14.1533 8.08057L14.167 7.74707L14.167 7.72607C14.166 7.67285 14.1445 7.62256 14.1074 7.58496C14.0693 7.54736 14.0195 7.52588 13.9658 7.52539L13.9531 7.52539C13.8916 7.52783 13.8301 7.51758 13.7725 7.49463C13.7148 7.47168 13.6631 7.43701 13.6191 7.39258L13.5674 7.3252L13.4316 7.17383L13.2598 6.97363C13.1953 6.88086 13.1211 6.79541 13.0381 6.71875C12.9736 6.65332 12.8721 6.58545 12.7734 6.57275L12.6396 6.55176C12.5596 6.53516 12.4834 6.50439 12.4131 6.46045C12.3594 6.41895 12.2803 6.43213 12.2256 6.48633L12.1396 6.58057L12.0986 6.60645C12.0518 6.61963 12.0078 6.59375 11.9863 6.53906C11.958 6.45654 11.9629 6.36572 12 6.28662L12 6.24756C12 6.20068 11.9609 6.16699 11.9189 6.18018L11.8125 6.18018C11.6914 6.18457 11.5713 6.16211 11.4609 6.11523L11.3926 6.08643C11.3252 6.05273 11.25 6.03516 11.1738 6.03467C11.1035 6.0332 11.0342 6.05078 10.9736 6.08643L10.9473 6.10742C10.8672 6.15869 10.7744 6.18848 10.6797 6.19336L10.4609 6.19336C10.3643 6.19238 10.2695 6.22363 10.1924 6.28223C10.1064 6.3335 10.0127 6.36865 9.91406 6.38623L9.73438 6.41455C9.64648 6.43311 9.56348 6.47119 9.49219 6.52637C9.42773 6.59424 9.33398 6.63379 9.24805 6.65967L9.21387 6.67529C9.10449 6.70703 9.00977 6.77734 8.94824 6.87305L8.86719 6.95361C8.84473 6.98438 8.83203 7.02197 8.83203 7.06055C8.83203 7.09863 8.84473 7.13623 8.86719 7.16699C8.90625 7.23438 8.9873 7.25293 9.06836 7.23438L9.16699 7.19287C9.21875 7.17529 9.28125 7.19287 9.32617 7.21924C9.34863 7.2373 9.37402 7.25049 9.40234 7.25879C9.42969 7.2666 9.45898 7.26953 9.4873 7.26611L9.6543 7.24805C9.74805 7.24805 9.8418 7.24805 9.93262 7.27393C10.0342 7.30811 10.1201 7.3418 10.2002 7.40723C10.2764 7.46875 10.3691 7.50586 10.4658 7.51416C10.5674 7.52686 10.667 7.54785 10.7607 7.58154L10.8252 7.59473C10.8926 7.61572 10.9482 7.65967 10.9873 7.72754C11.0215 7.78223 11.0518 7.86035 11.0518 7.92822L11.0518 7.94922C11.0518 8.02686 11.1191 8.08203 11.1875 8.08203L11.2266 8.08203C11.334 8.08203 11.4482 8.09521 11.5605 8.12891L11.6074 8.14697C11.6787 8.17383 11.7412 8.2207 11.7861 8.28271C11.8408 8.34766 11.873 8.41553 11.8936 8.48047L11.915 8.57471C11.9326 8.67627 11.9404 8.7749 11.9404 8.88184L11.9404 8.91602C11.9404 8.98096 11.9873 9.04883 12.0605 9.0752C12.1279 9.08789 12.207 9.1167 12.2822 9.15576L12.3135 9.16846C12.4023 9.2207 12.4883 9.28857 12.5527 9.36914L12.5869 9.41602C12.6758 9.51514 12.7197 9.64258 12.7197 9.76758L12.7197 9.81445C12.7197 9.91602 12.7021 10.0151 12.668 10.1089C12.6416 10.1895 12.668 10.2837 12.7539 10.3096L12.8008 10.3438C12.9023 10.3823 12.9883 10.4556 13.0537 10.5415C13.1211 10.6431 13.1475 10.7549 13.1475 10.875L13.1475 11.0757C13.1348 11.1431 13.1162 11.1953 13.083 11.2422C13.0488 11.2886 13.0488 11.3564 13.083 11.4033L13.1211 11.4688L13.1328 11.4609ZM8.86621 8.04688L8.85352 8.04688C8.8252 8.04688 8.8125 8.08105 8.81934 8.11475L8.8457 8.24756C8.87109 8.35449 8.88477 8.46094 8.90039 8.56787C8.91309 8.67529 8.96484 8.76611 9.0459 8.8335L9.07227 8.8335C9.12109 8.87207 9.16113 8.92041 9.18945 8.97607C9.21875 9.03125 9.23535 9.0918 9.23828 9.1543L9.23828 9.48779C9.22559 9.55273 9.23828 9.62061 9.28027 9.67529L9.31152 9.70654C9.37305 9.78271 9.4082 9.87695 9.41309 9.97461L9.43066 10.3418C9.43066 10.4277 9.37891 10.5005 9.29785 10.5137L9.2334 10.5264C9.18652 10.5264 9.16602 10.5811 9.16602 10.6279C9.16602 10.6802 9.18652 10.7402 9.2041 10.7944L9.2041 10.8076C9.22559 10.8726 9.2334 10.9404 9.22559 11.0078L9.19922 11.1875C9.1748 11.3179 9.12988 11.4438 9.06641 11.5601L9.01953 11.6406C8.99023 11.6987 8.94336 11.7456 8.88379 11.7734C8.85254 11.7866 8.82422 11.8062 8.80078 11.8315C8.77832 11.8569 8.76074 11.8867 8.75098 11.9194L8.69922 12.1592C8.66113 12.3008 8.60254 12.436 8.52441 12.5601L8.51172 12.5601C8.43164 12.6689 8.33008 12.7598 8.21191 12.8257L8.13184 12.8799L7.93066 12.979C7.89941 12.9937 7.87109 13.0161 7.85059 13.0444C7.8291 13.0728 7.81641 13.106 7.81152 13.1406L7.7793 13.3594C7.75879 13.4927 7.71191 13.6069 7.61816 13.6929L7.53223 13.7944L7.43066 13.8936L7.33203 14.0005C7.25098 14.0947 7.13086 14.1338 6.99805 14.1152L6.75879 14.0679L6.53711 14.0396L6.47754 14.0396C6.45117 14.0679 6.44531 14.1069 6.46387 14.1465C6.51074 14.2271 6.58398 14.2822 6.66504 14.2822L6.81055 14.3081C6.87793 14.3081 6.95898 14.3423 7.02441 14.373C7.0918 14.4199 7.15723 14.4536 7.2373 14.4746L7.25098 14.4746C7.33887 14.5088 7.42969 14.5137 7.51855 14.5088L7.61719 14.4932C7.73242 14.48 7.83887 14.4932 7.92969 14.5347L8.01074 14.5605C8.04492 14.5737 8.09668 14.5605 8.13086 14.5264C8.16895 14.4893 8.21387 14.46 8.26367 14.4404L8.31836 14.4277C8.4043 14.4014 8.49023 14.3862 8.58398 14.3862L8.6377 14.3862C8.71582 14.3862 8.79199 14.4014 8.85742 14.4404L8.88281 14.4536C8.92969 14.4746 8.98438 14.4536 9.01855 14.4146C9.03613 14.3677 9.08398 14.3203 9.13086 14.2817L9.29688 14.167L9.4043 14.0996L9.45898 14.0679C9.53027 14.0225 9.61328 13.9985 9.69824 14.0005L9.9375 13.9795C9.98438 13.9736 10.0283 13.9541 10.0635 13.9238C10.0996 13.8931 10.125 13.8525 10.1377 13.8076C10.1641 13.7061 10.2031 13.6069 10.2715 13.521C10.3389 13.4326 10.4043 13.3594 10.4717 13.2944C10.5469 13.2319 10.6396 13.1943 10.7373 13.1875L10.792 13.1875C10.8438 13.1772 10.8896 13.1489 10.9229 13.1074C10.9561 13.0659 10.9727 13.0142 10.9707 12.9609L10.9707 12.5132C10.9844 12.4482 11.0098 12.3594 11.0488 12.2939L11.1846 12.0938L11.2363 12.0259C11.2783 11.9922 11.3037 11.9482 11.3506 11.8931L11.416 11.8071C11.458 11.7397 11.458 11.6533 11.4033 11.5938C11.3408 11.5229 11.3018 11.4346 11.291 11.3408L11.291 11.3125C11.2754 11.2012 11.2812 11.0879 11.3086 10.979L11.3086 10.9478C11.3428 10.8589 11.3896 10.7729 11.4443 10.6924C11.4697 10.6616 11.4824 10.6216 11.4785 10.5815C11.4746 10.5415 11.4541 10.5044 11.4238 10.479L11.3086 10.3799C11.2178 10.2969 11.1611 10.1826 11.1504 10.0596L11.1367 9.92676C11.1367 9.88525 11.1367 9.84033 11.124 9.79346L11.1113 9.69189C11.1025 9.6377 11.083 9.58643 11.0527 9.54053C11.0225 9.49463 10.9824 9.45605 10.9365 9.42676L10.8896 9.41357C10.8154 9.36719 10.752 9.30615 10.7021 9.23389C10.6504 9.1665 10.624 9.07275 10.6035 8.979L10.582 8.86719C10.582 8.82568 10.5557 8.79932 10.5166 8.78125L10.1963 8.67969C10.1289 8.6665 10.0635 8.61475 10.0166 8.56738L10.0039 8.56738C9.96289 8.51318 9.89746 8.51318 9.85547 8.55225L9.79102 8.61963C9.77734 8.64062 9.76172 8.64551 9.74316 8.64062C9.70215 8.64062 9.67578 8.60645 9.68945 8.57324C9.69629 8.521 9.69043 8.46777 9.6709 8.41895C9.65039 8.36963 9.61816 8.32715 9.57715 8.29443L9.48828 8.22705L9.29102 8.09424C9.23633 8.07324 9.15527 8.09424 9.12891 8.15918L9.10352 8.20068C9.10352 8.21338 9.08203 8.21875 9.07715 8.22656C9.04883 8.22656 9.00977 8.22656 9.00977 8.19238L8.98828 8.15869C8.9707 8.11963 8.92383 8.09375 8.88184 8.08057L8.86621 8.04688ZM8.06738 8.71338L8.0332 8.67969C7.99902 8.65332 7.96582 8.65869 7.93164 8.69238C7.88379 8.77197 7.84766 8.85791 7.82422 8.94775L7.82422 8.96045C7.80664 9.04639 7.72559 9.10645 7.64551 9.09375L7.56738 9.09375C7.52246 9.09424 7.47949 9.11328 7.44824 9.14551C7.41699 9.17773 7.40039 9.2207 7.40039 9.26562C7.40039 9.38574 7.35938 9.50732 7.28613 9.59912L7.24707 9.64062C7.17676 9.7251 7.08398 9.7876 6.97949 9.81982L6.92676 9.83301C6.89258 9.8418 6.8623 9.86035 6.83887 9.88623C6.81543 9.91211 6.7998 9.94434 6.79395 9.979C6.79395 10.0464 6.75293 10.1147 6.7002 10.1665L6.63281 10.2188C6.55176 10.3071 6.43164 10.354 6.3125 10.3672L5.97852 10.4009C5.87109 10.4009 5.78027 10.4658 5.71289 10.5674C5.64551 10.6665 5.54688 10.7339 5.44727 10.7471L5.29883 10.7603C5.1875 10.7749 5.0752 10.7705 4.96582 10.7471L4.90039 10.7339L4.71777 10.687C4.69043 10.6768 4.65918 10.6763 4.63086 10.6846C4.60254 10.6929 4.57715 10.7104 4.55859 10.7339L4.49121 10.8198C4.45117 10.8677 4.39941 10.9043 4.34082 10.9277C4.2832 10.9507 4.2207 10.9595 4.1582 10.9531L3.72559 10.9009C3.6582 10.9009 3.60547 10.8672 3.5459 10.8335C3.47852 10.7944 3.43164 10.7476 3.38477 10.7007L3.21777 10.5C3.2002 10.4868 3.16602 10.479 3.13184 10.4868L3.03809 10.5259L2.66602 10.6201C2.59766 10.6411 2.51172 10.6201 2.44629 10.5811C2.37891 10.5264 2.29785 10.5137 2.21777 10.5137L2.13184 10.5137C2.1123 10.5186 2.09375 10.5273 2.07812 10.5396C2.06152 10.5518 2.04785 10.5669 2.03809 10.5845C2.02832 10.6021 2.02148 10.6216 2.01953 10.6416C2.01758 10.6616 2.01855 10.6816 2.02441 10.7012L2.05078 10.834C2.07129 10.9014 2.06641 10.98 2.03223 11.0474C1.99902 11.1152 2.00684 11.1807 2.05078 11.248L2.0918 11.3003C2.14453 11.3804 2.22461 11.4487 2.29297 11.5137C2.35742 11.5811 2.42578 11.6465 2.47754 11.7349L2.5791 11.9146C2.60059 11.959 2.63477 11.9966 2.67773 12.0225C2.71973 12.0483 2.76855 12.0615 2.81836 12.0605C2.91797 12.0605 3.01953 12.0947 3.09668 12.1597L3.29785 12.3472C3.35254 12.394 3.43066 12.4014 3.48535 12.3599L3.51953 12.3472C3.55762 12.3472 3.58398 12.373 3.58398 12.4146L3.58398 12.4487C3.58398 12.5347 3.65137 12.6152 3.7373 12.6465L4.03711 12.7139C4.14453 12.748 4.25098 12.7817 4.35254 12.8472L4.4043 12.8472C4.41797 12.8472 4.43066 12.8442 4.44336 12.8384C4.45508 12.833 4.46582 12.8247 4.47559 12.8149C4.48438 12.8047 4.49023 12.793 4.49512 12.7798C4.49902 12.7671 4.5 12.7534 4.49805 12.7402L4.49805 12.5078C4.49805 12.4404 4.52441 12.3726 4.57812 12.3467L4.6123 12.3335C4.64453 12.3467 4.67773 12.3726 4.66504 12.4009L4.66504 12.5132C4.66504 12.5991 4.69043 12.6797 4.75098 12.7397C4.7793 12.7695 4.81543 12.791 4.85547 12.8003C4.89551 12.8101 4.93848 12.8081 4.97754 12.7939C5.05762 12.7603 5.13867 12.7524 5.22461 12.7603L5.47168 12.7729C5.5918 12.7861 5.7041 12.7729 5.80566 12.7261C5.92578 12.687 6.02441 12.6318 6.11816 12.5596L6.15723 12.5337L6.35742 12.354C6.41895 12.2905 6.50391 12.2539 6.5918 12.2524L6.85742 12.2524C6.9248 12.2437 6.98828 12.2129 7.03613 12.165C7.08496 12.1172 7.11621 12.0547 7.12598 11.9868L7.15137 11.854C7.15137 11.7656 7.19043 11.6875 7.25098 11.6196C7.31836 11.5522 7.38379 11.5127 7.45117 11.4863L7.53125 11.4526C7.58789 11.4277 7.63867 11.3916 7.67969 11.3457C7.72168 11.2998 7.75195 11.2456 7.77148 11.187L7.81055 11.0254C7.84375 10.8926 7.91113 10.7603 8.01074 10.6738L8.02344 10.6587C8.10449 10.5938 8.11719 10.4604 8.06543 10.3672L8.04395 10.3198C8.02051 10.2827 8.00684 10.2402 8.00293 10.1963C7.99902 10.1523 8.00586 10.1084 8.02344 10.0674C8.05664 9.97363 8.09082 9.89307 8.14258 9.8125L8.21094 9.71875C8.23633 9.6665 8.23633 9.58545 8.19727 9.53906C8.15527 9.48633 8.13184 9.42139 8.12988 9.354L8.11719 9.26025L8.11719 9.03369C8.12695 8.95898 8.12012 8.8833 8.0957 8.81201L8.07031 8.73389L8.06738 8.71338ZM7.11426 8.20557L7.11426 8.1875C7.11426 8.12012 7.07227 8.08057 7.02051 8.08057L6.8457 8.08057C6.78418 8.09375 6.71973 8.09375 6.6582 8.08057L6.3584 8.08057C6.20508 8.08057 6.05859 8.05225 5.91309 8.01318L5.75195 7.97412L5.61816 7.93262L5.31934 7.8335C5.24219 7.81152 5.1709 7.77344 5.10938 7.72168C5.04883 7.67041 4.99902 7.60645 4.96484 7.53418L4.93066 7.4668C4.88379 7.36768 4.78516 7.31299 4.68652 7.3335C4.57129 7.3335 4.45996 7.3335 4.35254 7.28174L4.27246 7.24756C4.11816 7.18018 4.00684 7.04688 4.00684 6.86768L3.97852 6.68799C3.95996 6.59424 3.90039 6.50879 3.81934 6.47461C3.72559 6.43164 3.63574 6.37988 3.55078 6.32129L3.51953 6.30029C3.41406 6.21924 3.33301 6.11133 3.28516 5.98779L3.27246 5.94873C3.2373 5.84082 3.2334 5.72559 3.25879 5.61523L3.27246 5.57373C3.29785 5.48779 3.30566 5.40137 3.30566 5.30811C3.30469 5.22461 3.27148 5.14502 3.21191 5.08643L3.11816 5.00049C3.06445 4.95752 3.02148 4.90381 2.99023 4.84277C2.95898 4.78174 2.94141 4.71484 2.93848 4.64648C2.92285 4.50439 2.92773 4.36084 2.95117 4.21973L2.95117 4.18066C2.95117 4.14551 2.9375 4.11133 2.91211 4.08643C2.8877 4.06152 2.85352 4.04785 2.81836 4.04736L2.79785 4.04736C2.71191 4.04736 2.63867 4.09961 2.59668 4.18066C2.56348 4.26904 2.51465 4.3501 2.45117 4.41992L2.4248 4.4541L2.22461 4.65479C2.15723 4.71973 2.11719 4.82129 2.10449 4.91992C2.0918 5.02148 2.06543 5.12061 2.02441 5.21436L2.01074 5.24854C1.97852 5.32812 1.92578 5.39746 1.85742 5.44922C1.8252 5.47412 1.79785 5.50586 1.77832 5.54248C1.75879 5.57861 1.74805 5.61865 1.74512 5.66016L1.73242 5.96777C1.73242 6.10059 1.71191 6.23535 1.66504 6.36865L1.65234 6.42041C1.63477 6.46094 1.63379 6.50586 1.64844 6.54736C1.66406 6.58838 1.69336 6.62207 1.73242 6.64209L2.01074 6.76221L2.03711 6.7749C2.05762 6.7749 2.06543 6.78809 2.07129 6.80908C2.0918 6.83496 2.07129 6.87402 2.0498 6.87402L1.98535 6.9082C1.94629 6.9209 1.91797 6.9624 1.9043 7.00977L1.8916 7.07471L1.8916 7.0874L1.82422 7.4624C1.81152 7.51465 1.81152 7.57471 1.81152 7.63477C1.81152 7.66016 1.81836 7.68555 1.83301 7.70654C1.84766 7.72803 1.86816 7.74463 1.8916 7.75439L2.03711 7.82227C2.10547 7.86084 2.18652 7.9082 2.23828 7.95508L2.30566 8.00977C2.32617 8.03662 2.35352 8.05908 2.38379 8.07471L2.41211 8.10059C2.45801 8.14111 2.49023 8.19482 2.50586 8.25391L2.57129 8.55371C2.57129 8.63428 2.63867 8.70215 2.7041 8.72021L2.81152 8.75391C2.81152 8.75391 2.83203 8.75391 2.84473 8.76709L2.97852 8.80859C3.08496 8.84277 3.17871 8.90234 3.25977 8.98047C3.33984 9.04785 3.41895 9.13428 3.48633 9.22803L3.51172 9.25391C3.56641 9.32178 3.64551 9.35547 3.72559 9.33447C3.80566 9.31348 3.8916 9.30859 3.97852 9.30859L4.0791 9.30859C4.14453 9.30859 4.2334 9.32666 4.30566 9.37354C4.37109 9.41504 4.45996 9.44092 4.53809 9.4751L4.55859 9.4751C4.59766 9.49023 4.63867 9.49609 4.67969 9.4917C4.7207 9.48682 4.75977 9.47217 4.79395 9.44922C4.86133 9.39551 4.94629 9.3667 5.0332 9.36865L5.3457 9.38672C5.41309 9.38672 5.47852 9.37354 5.51172 9.32178L5.52539 9.32178L5.63965 9.21436L5.67383 9.18066C5.7002 9.15039 5.73242 9.12598 5.76855 9.10889C5.80469 9.0918 5.84473 9.08252 5.88477 9.08154L6.18652 9.08154C6.26465 9.08154 6.33984 9.01416 6.37109 8.94873C6.38867 8.91357 6.41406 8.8833 6.44531 8.85986C6.47656 8.83643 6.5127 8.82031 6.55078 8.81299L6.68652 8.78711C6.73828 8.78711 6.78516 8.74023 6.80664 8.68018C6.82227 8.61816 6.85742 8.5625 6.90527 8.521L7.0127 8.41406C7.07324 8.35791 7.11426 8.28271 7.12695 8.20068L7.11426 8.20557Z" fill="#737373" fill-opacity="1.000000" fill-rule="nonzero"/>
	</g>
</svg>
