<svg width="16.000000" height="16.000000" viewBox="0 0 16 16" fill="none" xmlns="http://www.w3.org/2000/svg" xmlns:xlink="http://www.w3.org/1999/xlink">
	<desc>
			Created with Pixso.
	</desc>
	<defs/>
	<path id="Vector" d="M15.5127 8.38818C15.4434 8.38818 15.376 8.37207 15.3125 8.34131L11.124 6.24268C11.0381 6.19971 10.9658 6.12988 10.9141 6.0415C10.8633 5.95264 10.8359 5.84961 10.8359 5.74463C10.8359 5.63916 10.8633 5.53613 10.9141 5.44775C10.9658 5.35889 11.0381 5.28906 11.124 5.24609L15.3125 3.15479C15.4307 3.09619 15.5654 3.09229 15.6865 3.14404C15.8066 3.1958 15.9043 3.29883 15.958 3.43066C16.0098 3.56299 16.0137 3.71338 15.9668 3.84863C15.9209 3.98389 15.8281 4.09277 15.71 4.15186L12.5195 5.74512L15.7109 7.34424C15.8135 7.39502 15.8965 7.4834 15.9473 7.59473C15.998 7.70605 16.0127 7.83398 15.9893 7.95605C15.9658 8.07812 15.9062 8.18799 15.8193 8.2666C15.7324 8.34521 15.624 8.38818 15.5127 8.38818Z" fill="#737373" fill-opacity="1.000000" fill-rule="nonzero"/>
	<path id="Vector" d="M9.80371 16C5.19922 16 1.17285 12.5229 0.015625 7.54346C-0.0166016 7.40332 0.00195312 7.25488 0.0673828 7.12988C0.132812 7.00488 0.239258 6.91455 0.365234 6.87793C0.490234 6.84131 0.623047 6.8623 0.734375 6.93555C0.845703 7.00879 0.926758 7.12842 0.959961 7.26855C1.4707 9.45703 2.61523 11.3945 4.21582 12.7773C5.81641 14.1597 7.78223 14.9092 9.80371 14.9087C9.93359 14.9087 10.0576 14.9663 10.1494 15.0684C10.2402 15.1709 10.292 15.3096 10.292 15.4546C10.292 15.5991 10.2402 15.7378 10.1494 15.8403C10.0576 15.9429 9.93359 16 9.80371 16Z" fill="#737373" fill-opacity="1.000000" fill-rule="nonzero"/>
	<path id="Vector" d="M8.12305 11.4673C7.99316 11.4673 7.86914 11.4102 7.77734 11.3076C7.68652 11.2051 7.63477 11.0664 7.63477 10.9219L7.63477 0.545898C7.63477 0.400879 7.68652 0.262207 7.77734 0.159668C7.86914 0.0576172 7.99316 0 8.12305 0C8.25195 0 8.37598 0.0576172 8.46777 0.159668C8.55957 0.262207 8.61035 0.400879 8.61035 0.545898L8.61035 10.9219C8.61035 11.0664 8.55957 11.2051 8.46777 11.3076C8.37598 11.4102 8.25195 11.4673 8.12305 11.4673Z" fill="#737373" fill-opacity="1.000000" fill-rule="nonzero"/>
</svg>
