<svg width="249.532715" height="160.000000" viewBox="0 0 249.533 160" fill="none" xmlns="http://www.w3.org/2000/svg" xmlns:xlink="http://www.w3.org/1999/xlink">
	<desc>
			Created with Pixso.
	</desc>
	<defs/>
	<g opacity="0.300000">
		<path id="Vector" d="M48.46 14.9213C23.145 24.7238 4.35986 49.568 0.624268 79.6284C-2.49658 104.959 4.95972 132.946 48.8547 140.919C134.26 156.439 222.301 158.254 242.718 116.394C263.136 74.5336 235.194 7.50293 191.845 2.86365C157.449 -0.826538 97.9128 -4.22058 48.46 14.9213Z" fill="#FFFFFF" fill-opacity="1.000000" fill-rule="nonzero"/>
	</g>
	<path id="Vector" d="M92.8101 9.06714L156.789 9.06714C160.802 9.06714 164.055 12.3204 164.055 16.3336L164.055 137.244C164.055 141.257 160.802 144.51 156.789 144.51L92.8101 144.51C88.7971 144.51 85.5437 141.257 85.5437 137.244L85.5437 16.3336C85.5437 12.3204 88.7971 9.06714 92.8101 9.06714Z" fill="#333333" fill-opacity="1.000000" fill-rule="evenodd"/>
	<g opacity="0.030000">
		<path id="Vector" d="M130.487 134.685C130.487 137.826 127.94 140.372 124.799 140.372C121.658 140.372 119.112 137.826 119.112 134.685C119.112 131.544 121.658 128.998 124.799 128.998C127.94 128.998 130.487 131.544 130.487 134.685Z" fill="#333333" fill-opacity="1.000000" fill-rule="evenodd"/>
	</g>
	<path id="Vector" d="M93.1978 20.821L156.394 20.821L156.394 126.28L93.1978 126.28L93.1978 20.821Z" fill="#EFEBFF" fill-opacity="1.000000" fill-rule="evenodd"/>
	<g opacity="0.030000">
		<path id="Vector" d="M119.629 117.943C119.629 119.083 118.704 120.008 117.563 120.008C116.423 120.008 115.498 119.083 115.498 117.943C115.498 116.802 116.423 115.877 117.563 115.877C118.704 115.877 119.629 116.802 119.629 117.943Z" fill="#333333" fill-opacity="1.000000" fill-rule="evenodd"/>
	</g>
	<g opacity="0.440000">
		<path id="Vector" d="M126.865 117.943C126.865 119.083 125.94 120.008 124.8 120.008C123.659 120.008 122.734 119.083 122.734 117.943C122.734 116.802 123.659 115.877 124.8 115.877C125.94 115.877 126.865 116.802 126.865 117.943Z" fill="#FFFFFF" fill-opacity="1.000000" fill-rule="evenodd"/>
	</g>
	<g opacity="0.030000">
		<path id="Vector" d="M134.101 117.943C134.101 119.083 133.176 120.008 132.036 120.008C130.895 120.008 129.97 119.083 129.97 117.943C129.97 116.802 130.895 115.877 132.036 115.877C133.176 115.877 134.101 116.802 134.101 117.943Z" fill="#333333" fill-opacity="1.000000" fill-rule="evenodd"/>
	</g>
	<g opacity="0.030000">
		<path id="Vector" d="M101.634 32.4534L147.966 32.4534L147.966 72.0051L101.634 72.0051L101.634 32.4534Z" fill="#333333" fill-opacity="1.000000" fill-rule="evenodd"/>
	</g>
	<g opacity="0.030000">
		<path id="Vector" d="M101.634 79.6285L134.139 79.6285L134.139 83.2504L101.634 83.2504L101.634 79.6285Z" fill="#333333" fill-opacity="1.000000" fill-rule="evenodd"/>
	</g>
	<g opacity="0.030000">
		<path id="Vector" d="M136.333 79.6285L147.966 79.6285L147.966 83.2504L136.333 83.2504L136.333 79.6285Z" fill="#333333" fill-opacity="1.000000" fill-rule="evenodd"/>
	</g>
	<g opacity="0.030000">
		<path id="Vector" d="M101.634 90.7371L116.82 90.7371L116.82 94.3589L101.634 94.3589L101.634 90.7371Z" fill="#333333" fill-opacity="1.000000" fill-rule="evenodd"/>
	</g>
	<g opacity="0.030000">
		<path id="Vector" d="M120.046 90.7371L147.966 90.7371L147.966 94.3589L120.046 94.3589L120.046 90.7371Z" fill="#333333" fill-opacity="1.000000" fill-rule="evenodd"/>
	</g>
	<g opacity="0.030000">
		<path id="Vector" d="M101.634 101.853L136.721 101.853L136.721 105.475L101.634 105.475L101.634 101.853Z" fill="#333333" fill-opacity="1.000000" fill-rule="evenodd"/>
	</g>
	<path id="Vector" d="M15.2256 20.821L78.4219 20.821L78.4219 126.28L15.2256 126.28L15.2256 20.821Z" fill="#EFEBFF" fill-opacity="1.000000" fill-rule="evenodd"/>
	<g opacity="0.440000">
		<path id="Vector" d="M41.6567 117.943C41.6567 119.083 40.7319 120.008 39.5913 120.008C38.4507 120.008 37.5261 119.083 37.5261 117.943C37.5261 116.802 38.4507 115.877 39.5913 115.877C40.7319 115.877 41.6567 116.802 41.6567 117.943Z" fill="#FFFFFF" fill-opacity="1.000000" fill-rule="evenodd"/>
	</g>
	<g opacity="0.030000">
		<path id="Vector" d="M48.8926 117.943C48.8926 119.083 47.9678 120.008 46.8271 120.008C45.6865 120.008 44.762 119.083 44.762 117.943C44.762 116.802 45.6865 115.877 46.8271 115.877C47.9678 115.877 48.8926 116.802 48.8926 117.943Z" fill="#333333" fill-opacity="1.000000" fill-rule="evenodd"/>
	</g>
	<g opacity="0.030000">
		<path id="Vector" d="M56.1289 117.943C56.1289 119.083 55.2041 120.008 54.0635 120.008C52.9229 120.008 51.9983 119.083 51.9983 117.943C51.9983 116.802 52.9229 115.877 54.0635 115.877C55.2041 115.877 56.1289 116.802 56.1289 117.943Z" fill="#333333" fill-opacity="1.000000" fill-rule="evenodd"/>
	</g>
	<g opacity="0.030000">
		<path id="Vector" d="M23.6611 32.4534L69.9934 32.4534L69.9934 72.0051L23.6611 72.0051L23.6611 32.4534Z" fill="#333333" fill-opacity="1.000000" fill-rule="evenodd"/>
	</g>
	<g opacity="0.030000">
		<path id="Vector" d="M23.6611 79.6285L56.1665 79.6285L56.1665 83.2504L23.6611 83.2504L23.6611 79.6285Z" fill="#333333" fill-opacity="1.000000" fill-rule="evenodd"/>
	</g>
	<g opacity="0.030000">
		<path id="Vector" d="M58.3613 79.6285L69.9937 79.6285L69.9937 83.2504L58.3613 83.2504L58.3613 79.6285Z" fill="#333333" fill-opacity="1.000000" fill-rule="evenodd"/>
	</g>
	<g opacity="0.030000">
		<path id="Vector" d="M23.6611 90.7371L38.8472 90.7371L38.8472 94.3589L23.6611 94.3589L23.6611 90.7371Z" fill="#333333" fill-opacity="1.000000" fill-rule="evenodd"/>
	</g>
	<g opacity="0.030000">
		<path id="Vector" d="M42.0742 90.7371L69.9937 90.7371L69.9937 94.3589L42.0742 94.3589L42.0742 90.7371Z" fill="#333333" fill-opacity="1.000000" fill-rule="evenodd"/>
	</g>
	<g opacity="0.030000">
		<path id="Vector" d="M23.6611 101.853L58.7483 101.853L58.7483 105.475L23.6611 105.475L23.6611 101.853Z" fill="#333333" fill-opacity="1.000000" fill-rule="evenodd"/>
	</g>
	<path id="Vector" d="M171.17 20.821L234.366 20.821L234.366 126.28L171.17 126.28L171.17 20.821Z" fill="#EFEBFF" fill-opacity="1.000000" fill-rule="evenodd"/>
	<g opacity="0.030000">
		<path id="Vector" d="M197.601 117.943C197.601 119.083 196.676 120.008 195.535 120.008C194.395 120.008 193.47 119.083 193.47 117.943C193.47 116.802 194.395 115.877 195.535 115.877C196.676 115.877 197.601 116.802 197.601 117.943Z" fill="#333333" fill-opacity="1.000000" fill-rule="evenodd"/>
	</g>
	<g opacity="0.030000">
		<path id="Vector" d="M204.837 117.943C204.837 119.083 203.912 120.008 202.771 120.008C201.631 120.008 200.706 119.083 200.706 117.943C200.706 116.802 201.631 115.877 202.771 115.877C203.912 115.877 204.837 116.802 204.837 117.943Z" fill="#333333" fill-opacity="1.000000" fill-rule="evenodd"/>
	</g>
	<g opacity="0.440000">
		<path id="Vector" d="M212.073 117.943C212.073 119.083 211.148 120.008 210.008 120.008C208.867 120.008 207.943 119.083 207.943 117.943C207.943 116.802 208.867 115.877 210.008 115.877C211.148 115.877 212.073 116.802 212.073 117.943Z" fill="#FFFFFF" fill-opacity="1.000000" fill-rule="evenodd"/>
	</g>
	<g opacity="0.030000">
		<path id="Vector" d="M179.605 32.4534L225.938 32.4534L225.938 72.0051L179.605 72.0051L179.605 32.4534Z" fill="#333333" fill-opacity="1.000000" fill-rule="evenodd"/>
	</g>
	<g opacity="0.030000">
		<path id="Vector" d="M179.605 79.6285L212.111 79.6285L212.111 83.2504L179.605 83.2504L179.605 79.6285Z" fill="#333333" fill-opacity="1.000000" fill-rule="evenodd"/>
	</g>
	<g opacity="0.030000">
		<path id="Vector" d="M214.305 79.6285L225.938 79.6285L225.938 83.2504L214.305 83.2504L214.305 79.6285Z" fill="#333333" fill-opacity="1.000000" fill-rule="evenodd"/>
	</g>
	<g opacity="0.030000">
		<path id="Vector" d="M179.605 90.7371L194.792 90.7371L194.792 94.3589L179.605 94.3589L179.605 90.7371Z" fill="#333333" fill-opacity="1.000000" fill-rule="evenodd"/>
	</g>
	<g opacity="0.030000">
		<path id="Vector" d="M198.026 90.7371L225.946 90.7371L225.946 94.3589L198.026 94.3589L198.026 90.7371Z" fill="#333333" fill-opacity="1.000000" fill-rule="evenodd"/>
	</g>
	<g opacity="0.030000">
		<path id="Vector" d="M179.605 101.853L214.693 101.853L214.693 105.475L179.605 105.475L179.605 101.853Z" fill="#333333" fill-opacity="1.000000" fill-rule="evenodd"/>
	</g>
	<g opacity="0.100000">
		<path id="Vector" d="M146.364 144.541C146.364 143.781 144.754 112.65 145.786 108.019C146.819 103.387 156.295 80.7446 153.797 78.1023C151.299 75.46 142.149 81.4736 142.149 81.4736C142.149 81.4736 143.82 54.2073 139.872 52.2634C135.923 50.3197 134.169 57.9354 134.169 57.9354L132.066 88.4363L121.648 144.396L146.364 144.541Z" fill="#333333" fill-opacity="1.000000" fill-rule="nonzero"/>
	</g>
	<path id="Vector" d="M139.325 112.795C140.654 107.479 142.65 102.293 143.926 96.9252C144.769 93.3717 150.221 78.5199 151.747 74.1464C152.218 72.8024 152.62 71.1775 151.709 70.0841C151.401 69.7644 151.018 69.5272 150.595 69.3945C150.172 69.2618 149.722 69.2379 149.287 69.3248C148.409 69.5081 147.599 69.9313 146.948 70.5472C145.429 71.8837 142.628 78.4971 140.578 78.4895C138.095 78.4895 139.264 71.6559 139.196 70.3423C138.915 64.6855 139.332 57.4342 137.123 52.1191C135.483 48.1708 131.413 48.7023 130.456 52.9696C129.5 57.2368 129.537 75.1183 129.537 75.1183C129.537 75.1183 113.653 72.3923 110.942 77.2367C108.231 82.0809 112.81 112.855 112.81 112.855L139.325 112.795Z" fill="#F4A28C" fill-opacity="1.000000" fill-rule="nonzero"/>
	<path id="Vector" d="M141.261 160L140.973 111.094L111.292 104.579L99.3403 160L141.261 160Z" fill="#633CFF" fill-opacity="1.000000" fill-rule="nonzero"/>
	<g opacity="0.100000">
		<path id="Vector" d="M141.261 160L140.973 111.094L126.804 107.981L124.268 160L141.261 160Z" fill="#333333" fill-opacity="1.000000" fill-rule="nonzero"/>
	</g>
</svg>
