<svg width="182.500000" height="40.000000" viewBox="0 0 182.5 40" fill="none" xmlns="http://www.w3.org/2000/svg" xmlns:xlink="http://www.w3.org/1999/xlink">
	<desc>
			Created with Pixso.
	</desc>
	<defs>
		<clipPath id="clip3_734">
			<rect id="solar:link-circle-bold" width="40.000000" height="40.000000" fill="white" fill-opacity="0"/>
		</clipPath>
	</defs>
	<rect id="solar:link-circle-bold" width="40.000000" height="40.000000" fill="#FFFFFF" fill-opacity="0"/>
	<g clip-path="url(#clip3_734)">
		<path id="Vector" d="M5.77344 34.2251C8.2168 36.667 12.1436 36.667 20 36.667C27.8569 36.667 31.7852 36.667 34.2251 34.2251C36.667 31.7866 36.667 27.8569 36.667 20C36.667 12.1436 36.667 8.21533 34.2251 5.77344C31.7866 3.3335 27.8569 3.3335 20 3.3335C12.1436 3.3335 8.21533 3.3335 5.77344 5.77344C3.3335 8.2168 3.3335 12.1436 3.3335 20C3.3335 27.8569 3.3335 31.7852 5.77344 34.2251ZM15.8335 14.5835C14.7622 14.5835 13.7148 14.9014 12.8242 15.4966C11.9336 16.0918 11.2393 16.9375 10.8291 17.9272C10.4189 18.917 10.312 20.0063 10.521 21.0571C10.73 22.1074 11.2456 23.0728 12.0034 23.8301C12.7607 24.5879 13.7261 25.1035 14.7769 25.313C15.8276 25.522 16.9165 25.4146 17.9062 25.0044C18.896 24.5947 19.7422 23.9004 20.3374 23.0093C20.9326 22.1187 21.25 21.0713 21.25 20C21.25 19.6685 21.3818 19.3506 21.6162 19.1162C21.8506 18.8818 22.1685 18.75 22.5 18.75C22.8315 18.75 23.1494 18.8818 23.3843 19.1162C23.6187 19.3506 23.75 19.6685 23.75 20C23.75 21.5659 23.2856 23.0967 22.416 24.3984C21.5459 25.7002 20.3096 26.7148 18.8633 27.3145C17.4165 27.9136 15.8247 28.0703 14.2891 27.7646C12.7534 27.4595 11.3428 26.7051 10.2354 25.5981C9.12842 24.4907 8.37451 23.0801 8.06885 21.5444C7.76367 20.0088 7.92041 18.417 8.51953 16.9707C9.11865 15.5239 10.1333 14.2876 11.4351 13.4175C12.7373 12.5479 14.2676 12.0835 15.8335 12.0835C16.165 12.0835 16.4829 12.2153 16.7173 12.4497C16.9517 12.6841 17.0835 13.002 17.0835 13.3335C17.0835 13.665 16.9517 13.9829 16.7173 14.2173C16.4829 14.4517 16.165 14.5835 15.8335 14.5835ZM29.5835 20C29.5835 21.4365 29.0127 22.8145 27.9971 23.8301C26.981 24.8462 25.6035 25.417 24.167 25.417C23.8354 25.417 23.5176 25.5483 23.2827 25.7827C23.0483 26.0176 22.917 26.3354 22.917 26.667C22.917 26.9985 23.0483 27.3164 23.2827 27.5508C23.5176 27.7852 23.8354 27.917 24.167 27.917C25.7324 27.917 27.2632 27.4526 28.5649 26.5825C29.8672 25.7129 30.8818 24.4766 31.481 23.0298C32.0801 21.583 32.2368 19.9912 31.9312 18.4556C31.626 16.9199 30.8721 15.5093 29.7646 14.4023C28.6577 13.2949 27.2471 12.541 25.7114 12.2358C24.1758 11.9302 22.584 12.0869 21.1372 12.686C19.6904 13.2852 18.4541 14.2998 17.5845 15.6021C16.7144 16.9038 16.25 18.4346 16.25 20C16.25 20.3315 16.3818 20.6494 16.6162 20.8843C16.8506 21.1187 17.1685 21.25 17.5 21.25C17.8315 21.25 18.1494 21.1187 18.3843 20.8843C18.6187 20.6494 18.75 20.3315 18.75 20C18.75 18.5635 19.3208 17.186 20.3364 16.1699C21.3525 15.1543 22.7305 14.5835 24.167 14.5835C25.6035 14.5835 26.981 15.1543 27.9971 16.1699C29.0127 17.186 29.5835 18.5635 29.5835 20Z" fill="#633CFF" fill-opacity="1.000000" fill-rule="evenodd"/>
	</g>
	<path id="devlinks" d="M117.829 11.9199L117.829 6.25L123.369 6.25L123.369 11.9199L117.829 11.9199ZM61.2471 32.1499L61.2471 29.3813Q61.1772 29.5332 61.0962 29.6792Q60.5562 30.6509 59.5156 31.3452C58.3848 32.1152 57.0225 32.5 55.4297 32.5C53.814 32.5 52.4058 32.1265 51.2051 31.3799Q50.7759 31.0991 50.394 30.7646L50.3936 30.7646Q49.2036 29.7231 48.4697 28.1602Q47.5 26.0952 47.5 23.2949Q47.5 20.46 48.5044 18.3599Q49.2832 16.731 50.5415 15.6709L50.5415 15.6709Q50.9053 15.3643 51.3091 15.105Q51.5859 14.9307 51.8765 14.7827L51.8765 14.7827Q53.5103 13.9502 55.5684 13.9502Q58.0962 13.9502 59.6543 15.1401Q60.3271 15.6426 60.7651 16.3013Q60.9834 16.6294 61.1431 16.9966L61.1431 6.9502L66.3374 6.9502L66.3374 32.1499L61.2471 32.1499ZM108.668 32.1499L108.668 6.9502L113.863 6.9502L113.863 32.1499L108.668 32.1499ZM148.774 32.1499L148.774 6.9502L153.969 6.9502L153.969 21.4253L159.925 14.2998L165.915 14.2998L158.34 22.7441L166.262 32.1499L160.098 32.1499L153.969 24.4062L153.969 32.1499L148.774 32.1499ZM78.8008 32.5C76.8389 32.5 75.1304 32.1152 73.6763 31.3452Q72.4023 30.6504 71.4595 29.6455Q70.7871 28.9292 70.2827 28.0552C69.4976 26.6548 69.1055 25.0449 69.1055 23.2251Q69.1055 20.46 70.2827 18.395C71.0903 16.9951 72.21 15.9102 73.6416 15.1401Q75.7886 13.9502 78.6279 13.9502C80.4517 13.9502 82.0327 14.3232 83.3716 15.0698C84.7109 15.8169 85.7495 16.855 86.4883 18.1851C87.2271 19.5151 87.5962 21.0781 87.5962 22.875C87.5962 23.2485 87.585 23.5981 87.5615 23.9248C87.5386 24.2285 87.5039 24.52 87.458 24.7998L74.3584 24.7998C74.5107 25.8979 74.8491 26.7612 75.373 27.3901Q75.5645 27.6133 75.7876 27.7988Q76.8931 28.7202 78.7661 28.7202C79.5972 28.7202 80.313 28.5801 80.9131 28.2998C81.5137 28.02 81.9639 27.5649 82.2637 26.9351L87.1465 26.9351Q86.5977 28.5767 85.5483 29.7822Q84.9419 30.479 84.1685 31.0298C82.7832 32.0098 80.9941 32.5 78.8008 32.5ZM139.628 32.1499L139.628 21.0898C139.628 20.1099 139.374 19.375 138.866 18.8848C138.381 18.395 137.666 18.1499 136.719 18.1499C135.911 18.1499 135.184 18.3364 134.538 18.71C133.915 19.0835 133.418 19.5967 133.049 20.25C132.703 20.9033 132.529 21.6733 132.529 22.5601L132.529 32.1499L127.335 32.1499L127.335 14.2998L132.425 14.2998L132.425 17.5596C132.976 16.5747 133.703 15.7681 134.607 15.1401C135.738 14.3467 137.123 13.9502 138.762 13.9502C140.725 13.9502 142.225 14.5098 143.264 15.6299C144.303 16.7266 144.822 18.2085 144.822 20.0752L144.822 32.1499L139.628 32.1499ZM174.743 32.5C172.158 32.5 170.104 31.9751 168.58 30.9248C167.056 29.875 166.225 28.4282 166.086 26.585L170.727 26.585C170.842 27.3784 171.234 27.9849 171.904 28.4048C172.597 28.8018 173.543 29 174.743 29C175.829 29 176.613 28.8481 177.098 28.5449Q177.508 28.2817 177.697 27.9067Q177.86 27.5845 177.86 27.1802C177.86 26.7368 177.71 26.3984 177.41 26.165C177.133 25.9082 176.613 25.6982 175.852 25.5352L173.012 24.9399C170.911 24.4966 169.365 23.8315 168.372 22.9448C167.379 22.0352 166.883 20.8682 166.883 19.4448C166.883 17.7183 167.541 16.3765 168.857 15.4199Q170.831 13.9502 174.362 13.9502C176.694 13.9502 178.552 14.4282 179.938 15.3848Q180.951 16.0679 181.52 17.0171Q182.117 18.0142 182.223 19.3052L177.583 19.3052C177.491 18.6982 177.167 18.2432 176.613 17.9399C176.059 17.6133 175.274 17.4502 174.259 17.4502C173.335 17.4502 172.643 17.5898 172.181 17.8701C171.742 18.1265 171.523 18.5 171.523 18.9902C171.523 19.4102 171.708 19.7485 172.077 20.0049C172.446 20.2383 173.058 20.4482 173.912 20.6348L177.098 21.2998C178.875 21.6733 180.214 22.3735 181.115 23.3999Q181.782 24.1255 182.128 24.9805Q182.5 25.9004 182.5 26.9702C182.5 28.7202 181.819 30.085 180.457 31.0649C179.118 32.0215 177.213 32.5 174.743 32.5ZM94.6802 32.1499L87.7202 14.2998L93.2949 14.2998L97.2725 26.4888L101.225 14.2998L106.661 14.2998L99.7012 32.1499L94.6802 32.1499ZM118.002 32.1499L118.002 14.2998L123.196 14.2998L123.196 32.1499L118.002 32.1499ZM74.438 21.335L82.3438 21.335C82.2549 20.2061 81.9165 19.3545 81.3286 18.7798C80.6592 18.0801 79.7358 17.73 78.5586 17.73C77.1968 17.73 76.1348 18.1968 75.373 19.1299Q74.7026 19.9766 74.438 21.335ZM57.0918 28.2998Q58.1733 28.2998 59.0146 27.8501Q59.6006 27.5366 60.0698 27.0049C60.8315 26.1182 61.2124 24.8584 61.2124 23.2251Q61.2124 20.7749 60.0352 19.48Q59.5688 18.937 58.981 18.6157Q58.1294 18.1499 57.0225 18.1499Q56.0859 18.1499 55.3179 18.5098Q54.6094 18.8418 54.0444 19.48Q52.9019 20.8101 52.9019 23.2598Q52.9019 25.71 54.0444 27.0049Q54.5151 27.5225 55.0962 27.833Q55.9692 28.2998 57.0918 28.2998Z" fill="#333333" fill-opacity="1.000000" fill-rule="evenodd"/>
</svg>
