<svg width="32.000000" height="32.000000" viewBox="0 0 32 32" fill="none" xmlns="http://www.w3.org/2000/svg" xmlns:xlink="http://www.w3.org/1999/xlink">
	<desc>
			Created with Pixso.
	</desc>
	<defs>
		<clipPath id="clip86_24415">
			<rect id="solar:link-circle-bold" width="32.000000" height="32.000000" fill="white" fill-opacity="0"/>
		</clipPath>
	</defs>
	<rect id="solar:link-circle-bold" width="32.000000" height="32.000000" fill="#FFFFFF" fill-opacity="0"/>
	<g clip-path="url(#clip86_24415)">
		<path id="Vector" d="M4.61865 27.3799C6.57324 29.333 9.71436 29.333 16 29.333C22.2852 29.333 25.4277 29.333 27.3799 27.3799C29.333 25.4292 29.333 22.2852 29.333 16C29.333 9.71436 29.333 6.57178 27.3799 4.61865C25.4292 2.6665 22.2852 2.6665 16 2.6665C9.71436 2.6665 6.57178 2.6665 4.61865 4.61865C2.6665 6.57324 2.6665 9.71436 2.6665 16C2.6665 22.2852 2.6665 25.4277 4.61865 27.3799ZM12.6665 11.6665C11.8096 11.6665 10.9717 11.9204 10.2588 12.397C9.54639 12.873 8.99121 13.5498 8.66309 14.3413C8.33496 15.1333 8.24902 16.0049 8.4165 16.8452C8.5835 17.686 8.99658 18.458 9.60254 19.064C10.2085 19.6699 10.9805 20.0825 11.8213 20.25C12.6616 20.417 13.5332 20.3311 14.3247 20.0034C15.1167 19.6753 15.7935 19.1201 16.2695 18.4072C16.7456 17.6948 17 16.8569 17 16C17 15.7349 17.105 15.4805 17.293 15.293C17.4805 15.105 17.7349 15 18 15C18.2651 15 18.5195 15.105 18.707 15.293C18.8945 15.4805 19 15.7349 19 16C19 17.2524 18.6284 18.4771 17.9326 19.5186C17.2363 20.5601 16.2476 21.3716 15.0903 21.8511C13.9331 22.3306 12.6597 22.4561 11.4312 22.2114C10.2021 21.9673 9.07373 21.3638 8.18799 20.478C7.30225 19.5923 6.69922 18.4639 6.45508 17.2354C6.21045 16.0068 6.33594 14.7334 6.81543 13.5762C7.29443 12.4189 8.10645 11.4297 9.14795 10.7339C10.1895 10.0381 11.4141 9.6665 12.6665 9.6665C12.9316 9.6665 13.186 9.77197 13.3735 9.95947C13.561 10.147 13.6665 10.4014 13.6665 10.6665C13.6665 10.9316 13.561 11.186 13.3735 11.3735C13.186 11.561 12.9316 11.6665 12.6665 11.6665ZM23.6665 16C23.6665 17.1489 23.21 18.2515 22.3975 19.064C21.5845 19.8765 20.4824 20.333 19.333 20.333C19.0679 20.333 18.8135 20.4385 18.626 20.626C18.4385 20.8135 18.333 21.0679 18.333 21.333C18.333 21.5981 18.4385 21.8525 18.626 22.04C18.8135 22.228 19.0679 22.333 19.333 22.333C20.5859 22.333 21.8101 21.9619 22.8516 21.2656C23.8931 20.5698 24.7051 19.5806 25.1846 18.4233C25.6636 17.2661 25.7891 15.9927 25.5449 14.7642C25.3003 13.5356 24.6973 12.4072 23.8115 11.5215C22.9258 10.6357 21.7974 10.0327 20.5688 9.78809C19.3403 9.54395 18.0669 9.66943 16.9097 10.1484C15.7524 10.6279 14.7632 11.4399 14.0674 12.4814C13.3711 13.5229 13 14.7471 13 16C13 16.2651 13.105 16.5195 13.293 16.707C13.4805 16.8945 13.7349 17 14 17C14.2651 17 14.5195 16.8945 14.707 16.707C14.8945 16.5195 15 16.2651 15 16C15 14.8506 15.4565 13.7485 16.269 12.9355C17.0815 12.123 18.1841 11.6665 19.333 11.6665C20.4824 11.6665 21.5845 12.123 22.3975 12.9355C23.21 13.7485 23.6665 14.8506 23.6665 16Z" fill="#633CFF" fill-opacity="1.000000" fill-rule="evenodd"/>
	</g>
</svg>
