<svg width="16.000000" height="16.000000" viewBox="0 0 16 16" fill="none" xmlns="http://www.w3.org/2000/svg" xmlns:xlink="http://www.w3.org/1999/xlink">
	<desc>
			Created with Pixso.
	</desc>
	<defs>
		<clipPath id="clip86_26136">
			<rect id="mdi:linkedin" width="16.000000" height="16.000000" fill="white" fill-opacity="0"/>
		</clipPath>
	</defs>
	<rect id="mdi:linkedin" width="16.000000" height="16.000000" fill="#FFFFFF" fill-opacity="0"/>
	<g clip-path="url(#clip86_26136)">
		<path id="Vector" d="M12.667 2C13.0205 2 13.3594 2.14062 13.6094 2.39062C13.8594 2.64062 14 2.97949 14 3.3335L14 12.6665C14 13.0205 13.8594 13.3594 13.6094 13.6094C13.3594 13.8594 13.0205 14 12.667 14L3.33301 14C2.97949 14 2.64062 13.8594 2.39062 13.6094C2.14062 13.3594 2 13.0205 2 12.6665L2 3.3335C2 2.97949 2.14062 2.64062 2.39062 2.39062C2.64062 2.14062 2.97949 2 3.33301 2L12.667 2ZM12.333 12.3335L12.333 8.7998C12.333 8.22363 12.1045 7.6709 11.6973 7.26318C11.2891 6.85547 10.7363 6.62646 10.1602 6.62646C9.59375 6.62646 8.93359 6.97314 8.61328 7.49316L8.61328 6.75342L6.75293 6.75342L6.75293 12.3335L8.61328 12.3335L8.61328 9.04688C8.61328 8.5332 9.02637 8.11328 9.54004 8.11328C9.78711 8.11328 10.0254 8.21143 10.2002 8.38672C10.375 8.56152 10.4736 8.79932 10.4736 9.04688L10.4736 12.3335L12.333 12.3335ZM4.58691 5.70654C4.88379 5.70654 5.16895 5.58887 5.37891 5.37842C5.58887 5.16846 5.70703 4.88379 5.70703 4.58643C5.70703 3.9668 5.20703 3.45996 4.58691 3.45996C4.28809 3.45996 4.00098 3.57861 3.79004 3.79004C3.5791 4.00146 3.45996 4.28809 3.45996 4.58643C3.45996 5.20654 3.9668 5.70654 4.58691 5.70654ZM5.51367 12.3335L5.51367 6.75342L3.66699 6.75342L3.66699 12.3335L5.51367 12.3335Z" fill="#737373" fill-opacity="1.000000" fill-rule="nonzero"/>
	</g>
</svg>
