<svg width="16.000000" height="16.000000" viewBox="0 0 16 16" fill="none" xmlns="http://www.w3.org/2000/svg" xmlns:xlink="http://www.w3.org/1999/xlink">
	<desc>
			Created with Pixso.
	</desc>
	<defs>
		<clipPath id="clip86_26208">
			<rect id="mdi:twitch" width="16.000000" height="16.000000" fill="white" fill-opacity="0"/>
		</clipPath>
	</defs>
	<rect id="mdi:twitch" width="16.000000" height="16.000000" fill="#FFFFFF" fill-opacity="0"/>
	<g clip-path="url(#clip86_26208)">
		<path id="Vector" d="M7.76074 3.95361L8.71387 3.95361L8.71387 6.80664L7.76074 6.80664L7.76074 3.95361ZM10.3809 3.95361L11.334 3.95361L11.334 6.80664L10.3809 6.80664L10.3809 3.95361ZM4.66699 1.3335L2.28711 3.71338L2.28711 12.2866L5.14062 12.2866L5.14062 14.667L7.52734 12.2866L9.42676 12.2866L13.7139 8L13.7139 1.3335L4.66699 1.3335ZM12.7607 7.52686L10.8604 9.42676L8.9541 9.42676L7.28711 11.0933L7.28711 9.42676L5.14062 9.42676L5.14062 2.28662L12.7607 2.28662L12.7607 7.52686Z" fill="#737373" fill-opacity="1.000000" fill-rule="nonzero"/>
	</g>
</svg>
