<svg width="16.000000" height="16.000000" viewBox="0 0 16 16" fill="none" xmlns="http://www.w3.org/2000/svg" xmlns:xlink="http://www.w3.org/1999/xlink">
	<desc>
			Created with Pixso.
	</desc>
	<defs>
		<clipPath id="clip86_26201">
			<rect id="mdi:twitter" width="16.000000" height="16.000000" fill="white" fill-opacity="0"/>
		</clipPath>
	</defs>
	<rect id="mdi:twitter" width="16.000000" height="16.000000" fill="#FFFFFF" fill-opacity="0"/>
	<g clip-path="url(#clip86_26201)">
		<path id="Vector" d="M14.9727 4C14.46 4.2334 13.9062 4.38672 13.333 4.45996C13.9199 4.10645 14.373 3.54639 14.5859 2.87305C14.0332 3.20654 13.4199 3.43994 12.7734 3.57324C12.2461 3 11.5068 2.6665 10.666 2.6665C9.09961 2.6665 7.81934 3.94629 7.81934 5.52637C7.81934 5.75293 7.84668 5.97314 7.89258 6.17969C5.51953 6.06006 3.40625 4.91992 2 3.19336C1.75293 3.61328 1.61328 4.10645 1.61328 4.62646C1.61328 5.61963 2.11328 6.5 2.88672 7C2.41309 7 1.97266 6.8667 1.58594 6.6665L1.58594 6.68652C1.58594 8.07324 2.57324 9.2334 3.87988 9.49316C3.45996 9.60791 3.01953 9.62402 2.59277 9.54004C2.77441 10.1084 3.12891 10.6055 3.60742 10.9619C4.08496 11.3184 4.66309 11.5156 5.25977 11.5264C4.24902 12.3267 2.99609 12.7593 1.70605 12.7529C1.47949 12.7529 1.25293 12.7397 1.02637 12.7134C2.29297 13.5264 3.7998 14 5.41309 14C10.666 14 13.5527 9.63965 13.5527 5.85986C13.5527 5.7334 13.5527 5.61328 13.5459 5.48633C14.1064 5.08643 14.5859 4.58008 14.9727 4Z" fill="#737373" fill-opacity="1.000000" fill-rule="nonzero"/>
	</g>
</svg>
