<svg width="20.000000" height="20.000000" viewBox="0 0 20 20" fill="none" xmlns="http://www.w3.org/2000/svg" xmlns:xlink="http://www.w3.org/1999/xlink">
	<desc>
			Created with Pixso.
	</desc>
	<defs>
		<clipPath id="clip45_12321">
			<rect id="ph:eye-bold" width="20.000000" height="20.000000" fill="white" fill-opacity="0"/>
		</clipPath>
	</defs>
	<rect id="ph:eye-bold" width="20.000000" height="20.000000" fill="#FFFFFF" fill-opacity="0"/>
	<g clip-path="url(#clip45_12321)">
		<path id="Vector" d="M19.6094 9.61963C19.5806 9.55615 18.8965 8.03662 17.3848 6.5249C15.3618 4.50537 12.8125 3.4375 10 3.4375C7.1875 3.4375 4.63867 4.50537 2.61816 6.5249C1.10645 8.03662 0.421875 9.55615 0.390625 9.61963C0.337891 9.73975 0.310547 9.86914 0.310547 10.0005C0.310547 10.1313 0.337891 10.2612 0.390625 10.3813C0.419922 10.4453 1.104 11.9639 2.6167 13.4756C4.63867 15.4951 7.1875 16.5625 10 16.5625C12.8125 16.5625 15.3618 15.4951 17.3813 13.4756C18.894 11.9639 19.5781 10.4453 19.6074 10.3813C19.6606 10.2612 19.6885 10.1318 19.6885 10.0005C19.689 9.86963 19.6621 9.73975 19.6094 9.61963ZM16.0112 12.1978C14.334 13.8491 12.312 14.6875 10 14.6875C7.68848 14.6875 5.6665 13.8491 3.9917 12.1968C3.33252 11.5449 2.76562 10.8057 2.30664 10C2.76562 9.19482 3.33252 8.45605 3.9917 7.80371C5.66748 6.15088 7.68848 5.3125 10 5.3125C12.312 5.3125 14.333 6.15088 16.0088 7.80371C16.668 8.45605 17.2349 9.19482 17.6938 10C17.2349 10.8057 16.668 11.5444 16.0088 12.1968L16.0112 12.1978ZM10 6.5625C9.32031 6.5625 8.65576 6.76416 8.09033 7.1416C7.5249 7.51953 7.08447 8.05664 6.82422 8.68457C6.56396 9.3125 6.49609 10.0039 6.62891 10.6704C6.76123 11.3374 7.08887 11.9497 7.56934 12.4307C8.05029 12.9116 8.6626 13.2388 9.32959 13.3716C9.99658 13.5039 10.6875 13.436 11.3154 13.1758C11.9438 12.9155 12.4805 12.4751 12.8584 11.9097C13.2358 11.3442 13.4375 10.6797 13.4375 10C13.4365 9.08887 13.0742 8.21484 12.4297 7.57031C11.7852 6.92627 10.9116 6.56348 10 6.5625ZM10 11.5625C9.69092 11.5625 9.38916 11.4707 9.13232 11.2993C8.875 11.1274 8.6748 10.8833 8.55664 10.5981C8.43848 10.3125 8.40723 9.99805 8.46777 9.69531C8.52783 9.39209 8.67676 9.11377 8.89551 8.89502C9.11377 8.67676 9.39209 8.52783 9.69531 8.46729C9.99854 8.40723 10.3125 8.43799 10.5981 8.55664C10.8838 8.6748 11.1274 8.875 11.2993 9.13184C11.4712 9.38867 11.5625 9.69092 11.5625 10C11.5625 10.4146 11.3979 10.812 11.105 11.105C10.812 11.3979 10.4146 11.5625 10 11.5625Z" fill="#633CFF" fill-opacity="1.000000" fill-rule="nonzero"/>
	</g>
</svg>
