<svg width="20.000000" height="20.000000" viewBox="0 0 20 20" fill="none" xmlns="http://www.w3.org/2000/svg" xmlns:xlink="http://www.w3.org/1999/xlink">
	<desc>
			Created with Pixso.
	</desc>
	<defs>
		<clipPath id="clip112_995">
			<rect id="ph:floppy-disk-back-fill" width="20.000000" height="20.000000" fill="white" fill-opacity="0"/>
		</clipPath>
	</defs>
	<rect id="ph:floppy-disk-back-fill" width="20.000000" height="20.000000" fill="#FFFFFF" fill-opacity="0"/>
	<g clip-path="url(#clip112_995)">
		<path id="Vector" d="M19.5 3L17.625 3C17.5255 3 17.4302 3.03955 17.3599 3.10986C17.2896 3.18018 17.25 3.27563 17.25 3.375L17.25 7.5C17.25 7.89795 17.0919 8.2793 16.8107 8.56055C16.5294 8.84204 16.1478 9 15.75 9L8.27527 9C8.08142 9.00317 7.89368 8.93262 7.74976 8.80249C7.60583 8.67261 7.5166 8.49292 7.5 8.2998C7.49316 8.19702 7.50757 8.09424 7.54224 7.99731C7.57678 7.90063 7.63098 7.81201 7.70129 7.73706C7.77161 7.66187 7.85669 7.60229 7.95105 7.56152C8.04541 7.52075 8.14722 7.49976 8.25 7.5L15.375 7.5C15.4745 7.5 15.5698 7.46045 15.6401 7.39014C15.7104 7.31982 15.75 7.22437 15.75 7.125L15.75 3.375C15.75 3.27563 15.7104 3.18018 15.6401 3.10986C15.5698 3.03955 15.4745 3 15.375 3L8.5603 3C8.36328 2.99927 8.16809 3.03784 7.98608 3.11353C7.80396 3.18896 7.63879 3.2998 7.5 3.4397L3.4397 7.5C3.2998 7.63867 3.18884 7.80396 3.1134 7.98608C3.03796 8.16797 2.99939 8.36328 3 8.5603L3 19.5C3 19.8979 3.15808 20.2793 3.43933 20.5605C3.7207 20.842 4.10217 21 4.5 21L19.5 21C19.8978 21 20.2794 20.842 20.5607 20.5605C20.8419 20.2793 21 19.8979 21 19.5L21 4.5C21 4.10229 20.8419 3.7207 20.5607 3.43945C20.2794 3.15796 19.8978 3 19.5 3ZM12 17.25C11.4066 17.25 10.8267 17.074 10.3333 16.7444C9.83997 16.4148 9.45544 15.9463 9.22839 15.3979C9.00134 14.8499 8.94189 14.2466 9.05762 13.6648C9.17346 13.0828 9.45911 12.5483 9.87866 12.1287C10.2982 11.7092 10.8328 11.4233 11.4148 11.3076C11.9967 11.1919 12.5999 11.2512 13.1481 11.4783C13.6963 11.7053 14.1648 12.0898 14.4944 12.5833C14.8241 13.0767 15 13.6567 15 14.25C15 15.0457 14.684 15.8088 14.1213 16.3713C13.5587 16.9338 12.7957 17.25 12 17.25Z" fill="#FFFFFF" fill-opacity="1.000000" fill-rule="nonzero"/>
		<path id="Vector" d="M16.25 2.5L14.6875 2.5C14.6046 2.5 14.5251 2.53296 14.4666 2.59155C14.408 2.65015 14.375 2.72974 14.375 2.8125L14.375 6.25C14.375 6.58154 14.2433 6.89941 14.0089 7.13379C13.7744 7.36841 13.4565 7.5 13.125 7.5L6.89612 7.5C6.7345 7.50269 6.578 7.44385 6.45813 7.33545C6.33826 7.22705 6.26379 7.07739 6.25 6.9165C6.24438 6.83081 6.25635 6.74512 6.28516 6.66455C6.31396 6.58374 6.35913 6.51001 6.41772 6.44751C6.47632 6.38501 6.54724 6.33521 6.62585 6.30127C6.70447 6.26733 6.78931 6.24976 6.875 6.25L12.8125 6.25C12.8954 6.25 12.9749 6.21704 13.0334 6.15845C13.092 6.09985 13.125 6.02051 13.125 5.9375L13.125 2.8125C13.125 2.72974 13.092 2.65015 13.0334 2.59155C12.9749 2.53296 12.8954 2.5 12.8125 2.5L7.13354 2.5C6.96936 2.49951 6.80676 2.53149 6.65503 2.59448C6.5033 2.65747 6.3656 2.74976 6.25 2.86646L2.86646 6.25C2.74988 6.36572 2.65735 6.50342 2.59448 6.65503C2.53162 6.80664 2.49951 6.96948 2.5 7.13354L2.5 16.25C2.5 16.5815 2.63171 16.8994 2.86609 17.1338C3.10059 17.3684 3.41846 17.5 3.75 17.5L16.25 17.5C16.5815 17.5 16.8994 17.3684 17.1339 17.1338C17.3683 16.8994 17.5 16.5815 17.5 16.25L17.5 3.75C17.5 3.41846 17.3683 3.10059 17.1339 2.86621C16.8994 2.63159 16.5815 2.5 16.25 2.5ZM10 14.375C9.50549 14.375 9.02222 14.2283 8.61108 13.9536C8.19995 13.679 7.87952 13.2886 7.69031 12.8318C7.5011 12.375 7.45154 11.8723 7.5481 11.3872C7.64453 10.9023 7.88257 10.4568 8.2323 10.1072C8.58191 9.75757 9.02734 9.51953 9.51233 9.4231C9.99719 9.32666 10.4999 9.37598 10.9567 9.56519C11.4136 9.75464 11.804 10.075 12.0787 10.4861C12.3534 10.8972 12.5 11.3806 12.5 11.875C12.5 12.5381 12.2366 13.1738 11.7678 13.6428C11.299 14.1116 10.6631 14.375 10 14.375Z" fill="#737373" fill-opacity="1.000000" fill-rule="nonzero"/>
	</g>
</svg>
