<svg width="40.000000" height="40.000000" viewBox="0 0 40 40" fill="none" xmlns="http://www.w3.org/2000/svg" xmlns:xlink="http://www.w3.org/1999/xlink">
	<desc>
			Created with Pixso.
	</desc>
	<defs>
		<clipPath id="clip26_1260">
			<rect id="ph:image" width="40.000000" height="40.000000" fill="white" fill-opacity="0"/>
		</clipPath>
	</defs>
	<rect id="ph:image" width="40.000000" height="40.000000" fill="#FFFFFF" fill-opacity="0"/>
	<g clip-path="url(#clip26_1260)">
		<path id="Vector" d="M33.75 6.25L6.25 6.25C5.58691 6.25 4.95105 6.51343 4.48218 6.98218C4.01343 7.45105 3.75 8.08691 3.75 8.75L3.75 31.25C3.75 31.9131 4.01343 32.549 4.48218 33.0178C4.95105 33.4866 5.58691 33.75 6.25 33.75L33.75 33.75C34.4131 33.75 35.049 33.4866 35.5178 33.0178C35.9866 32.549 36.25 31.9131 36.25 31.25L36.25 8.75C36.25 8.08691 35.9866 7.45105 35.5178 6.98218C35.049 6.51343 34.4131 6.25 33.75 6.25ZM33.75 8.75L33.75 24.8047L29.6765 20.7328C29.4445 20.5006 29.1688 20.3164 28.8655 20.1907C28.5621 20.0651 28.2369 20.0004 27.9086 20.0004C27.5802 20.0004 27.2551 20.0651 26.9518 20.1907C26.6484 20.3164 26.3728 20.5006 26.1406 20.7328L23.0156 23.8578L16.1406 16.9828C15.6719 16.5143 15.0361 16.2511 14.3734 16.2511C13.7107 16.2511 13.0751 16.5143 12.6062 16.9828L6.25 23.3391L6.25 8.75L33.75 8.75ZM6.25 26.875L14.375 18.75L26.875 31.25L6.25 31.25L6.25 26.875ZM33.75 31.25L30.4109 31.25L24.7859 25.625L27.9109 22.5L33.75 28.3406L33.75 31.25ZM22.5 15.625C22.5 15.2542 22.61 14.8916 22.816 14.5833C23.022 14.275 23.3148 14.0347 23.6575 13.8927C24.0001 13.7509 24.3771 13.7136 24.7408 13.786C25.1045 13.8584 25.4386 14.037 25.7008 14.2992C25.963 14.5614 26.1416 14.8955 26.214 15.2592C26.2864 15.6229 26.2491 15.9999 26.1073 16.3425C25.9653 16.6852 25.7251 16.978 25.4167 17.184C25.1084 17.39 24.7458 17.5 24.375 17.5C23.8777 17.5 23.4008 17.3025 23.0492 16.9508C22.6975 16.5992 22.5 16.1223 22.5 15.625Z" fill="#633CFF" fill-opacity="1.000000" fill-rule="nonzero"/>
	</g>
</svg>
