<svg width="20.000000" height="20.000000" viewBox="0 0 20 20" fill="none" xmlns="http://www.w3.org/2000/svg" xmlns:xlink="http://www.w3.org/1999/xlink">
	<desc>
			Created with Pixso.
	</desc>
	<defs>
		<clipPath id="clip26_1265">
			<rect id="ph:link-bold" width="20.000000" height="20.000000" fill="white" fill-opacity="0"/>
		</clipPath>
	</defs>
	<rect id="ph:link-bold" width="20.000000" height="20.000000" fill="#FFFFFF" fill-opacity="0"/>
	<g clip-path="url(#clip26_1265)">
		<path id="Vector" d="M10.6541 14.6508C10.7413 14.7379 10.8108 14.8414 10.858 14.9553C10.9054 15.0693 10.9297 15.1914 10.9297 15.3148C10.9297 15.4382 10.9054 15.5604 10.858 15.6743C10.8108 15.7883 10.7413 15.8918 10.6541 15.9789L10.1899 16.4429C9.31055 17.3223 8.11792 17.8163 6.87427 17.8163C5.63074 17.8163 4.43799 17.3223 3.55872 16.4429C2.67932 15.5636 2.1853 14.3709 2.1853 13.1273C2.1853 11.8837 2.67932 10.691 3.55872 9.81171L5.44312 7.9281C6.28796 7.08112 7.4248 6.58923 8.62061 6.55316C9.81641 6.51715 10.9807 6.93976 11.8751 7.73438C11.9674 7.81641 12.0427 7.91589 12.0966 8.02704C12.1505 8.13818 12.182 8.25891 12.1892 8.3822C12.1964 8.50555 12.1793 8.62909 12.1389 8.74585C12.0984 8.86255 12.0353 8.97015 11.9532 9.0625C11.8711 9.15479 11.7717 9.2301 11.6605 9.284C11.5493 9.33789 11.4287 9.36932 11.3053 9.37659C11.182 9.38385 11.0585 9.36676 10.9418 9.32623C10.8251 9.28577 10.7174 9.22266 10.6251 9.14062C10.0887 8.66431 9.39075 8.41089 8.67383 8.43225C7.95679 8.45361 7.27502 8.74805 6.76807 9.25543L4.88525 11.1367C4.35767 11.6642 4.0614 12.3797 4.0614 13.1257C4.0614 13.8718 4.35767 14.5873 4.88525 15.1148C5.41272 15.6423 6.1283 15.9387 6.87427 15.9387C7.62036 15.9387 8.33582 15.6423 8.8634 15.1148L9.32739 14.6508C9.41455 14.5636 9.51794 14.4944 9.63171 14.4473C9.74548 14.4001 9.86755 14.3758 9.99072 14.3758C10.1139 14.3758 10.236 14.4001 10.3497 14.4473C10.4635 14.4944 10.5669 14.5636 10.6541 14.6508ZM16.4415 3.55701C15.5614 2.67902 14.369 2.18591 13.1259 2.18591C11.8827 2.18591 10.6903 2.67902 9.8103 3.55701L9.34619 4.02106C9.17004 4.1972 9.07117 4.43604 9.07117 4.68512C9.07117 4.9342 9.17004 5.1731 9.34619 5.34918C9.52234 5.52533 9.76123 5.62427 10.0103 5.62427C10.2593 5.62427 10.4982 5.52533 10.6743 5.34918L11.1384 4.88513C11.6659 4.3576 12.3813 4.06122 13.1274 4.06122C13.8734 4.06122 14.589 4.3576 15.1165 4.88513C15.644 5.41266 15.9404 6.12817 15.9404 6.87421C15.9404 7.62024 15.644 8.33569 15.1165 8.86328L13.2329 10.7476C12.7255 11.2548 12.0433 11.5488 11.3262 11.5696C10.609 11.5904 9.91101 11.3363 9.37512 10.8594C9.28271 10.7773 9.17517 10.7142 9.05847 10.6737C8.94177 10.6332 8.81812 10.6161 8.69482 10.6234C8.57153 10.6306 8.45081 10.662 8.3396 10.716C8.22852 10.7699 8.12903 10.8452 8.047 10.9375C7.96484 11.0298 7.90186 11.1374 7.86133 11.2542C7.8208 11.3708 7.80371 11.4944 7.81091 11.6177C7.81824 11.741 7.84973 11.8618 7.90356 11.9729C7.95752 12.084 8.03271 12.1835 8.12512 12.2656C9.0188 13.0601 10.1824 13.4828 11.3777 13.4476C12.5729 13.4123 13.7095 12.9215 14.5548 12.0757L16.4392 10.1921C17.3182 9.31232 17.8121 8.11957 17.8126 6.87585C17.813 5.63214 17.3199 4.43903 16.4415 3.55859L16.4415 3.55701Z" fill="#737373" fill-opacity="1.000000" fill-rule="nonzero"/>
	</g>
</svg>
