<svg width="16.000000" height="16.000000" viewBox="0 0 16 16" fill="none" xmlns="http://www.w3.org/2000/svg" xmlns:xlink="http://www.w3.org/1999/xlink">
	<desc>
			Created with Pixso.
	</desc>
	<defs>
		<clipPath id="clip112_699">
			<rect id="ph:link-bold" width="16.000000" height="16.000000" fill="white" fill-opacity="0"/>
		</clipPath>
	</defs>
	<rect id="ph:link-bold" width="16.000000" height="16.000000" fill="#FFFFFF" fill-opacity="0"/>
	<g clip-path="url(#clip112_699)">
		<path id="Vector" d="M8.52307 11.7207C8.59302 11.7903 8.64856 11.8732 8.6864 11.9642C8.72424 12.0554 8.74365 12.1532 8.74365 12.252C8.74365 12.3506 8.72424 12.4484 8.6864 12.5396C8.64856 12.6307 8.59302 12.7135 8.52307 12.7832L8.15186 13.1544C7.44836 13.8579 6.49426 14.2531 5.49939 14.2531C4.50452 14.2531 3.55042 13.8579 2.84692 13.1544C2.14343 12.4509 1.74817 11.4968 1.74817 10.502C1.74817 9.50708 2.14343 8.55286 2.84692 7.84937L4.35437 6.34253C5.03027 5.66492 5.9397 5.27136 6.89636 5.24255C7.85303 5.21375 8.78455 5.55188 9.5 6.1875C9.57385 6.25317 9.63403 6.33276 9.67725 6.42163C9.72034 6.51062 9.74548 6.60718 9.75134 6.70581C9.75708 6.80444 9.74341 6.90332 9.71106 6.9967C9.67859 7.09009 9.62817 7.17615 9.5625 7.25C9.49683 7.32385 9.41724 7.38416 9.32837 7.42725C9.23938 7.47034 9.14282 7.49548 9.04419 7.50134C8.94556 7.50708 8.84668 7.49341 8.7533 7.46106C8.65991 7.42871 8.57385 7.37817 8.5 7.3125C8.07092 6.93152 7.51257 6.72876 6.93896 6.74585C6.36536 6.76294 5.81995 6.99854 5.41443 7.40442L3.90808 8.90942C3.48608 9.33142 3.24902 9.90381 3.24902 10.5006C3.24902 11.0975 3.48608 11.6699 3.90808 12.0919C4.3302 12.5139 4.90259 12.751 5.49939 12.751C6.09619 12.751 6.66858 12.5139 7.09058 12.0919L7.46191 11.7207C7.53149 11.6509 7.61426 11.5956 7.70532 11.5579C7.79639 11.5201 7.89392 11.5007 7.99255 11.5007C8.09106 11.5007 8.1886 11.5201 8.27966 11.5579C8.37073 11.5956 8.45349 11.6509 8.52307 11.7207ZM13.1531 2.8457C12.4491 2.14319 11.4951 1.74878 10.5006 1.74878C9.5061 1.74878 8.55212 2.14319 7.84814 2.8457L7.47693 3.21692C7.33594 3.35779 7.25684 3.54895 7.25684 3.74817C7.25684 3.94739 7.33594 4.13855 7.47693 4.27942C7.6178 4.42029 7.80884 4.49951 8.00818 4.49951C8.2074 4.49951 8.39844 4.42029 8.53943 4.27942L8.91064 3.9082C9.33264 3.48608 9.90503 3.24902 10.5018 3.24902C11.0988 3.24902 11.6711 3.48608 12.0931 3.9082C12.5151 4.3302 12.7522 4.90259 12.7522 5.49939C12.7522 6.09619 12.5151 6.66858 12.0931 7.0907L10.5863 8.59814C10.1803 9.00391 9.63464 9.23914 9.06091 9.25574C8.48718 9.27234 7.92871 9.06909 7.5 8.6875C7.42615 8.62183 7.34009 8.57141 7.2467 8.53906C7.15332 8.50659 7.05444 8.49292 6.95581 8.49878C6.85718 8.50452 6.76062 8.52966 6.67163 8.57288C6.58276 8.61597 6.50317 8.67615 6.4375 8.75C6.37183 8.82385 6.32141 8.91003 6.28894 9.0033C6.25659 9.09668 6.24292 9.19556 6.24866 9.29419C6.25452 9.39294 6.27966 9.48938 6.32275 9.57837C6.36597 9.66736 6.42615 9.74683 6.5 9.8125C7.21497 10.4481 8.14587 10.7864 9.10205 10.7581C10.0582 10.7299 10.9675 10.3373 11.6438 9.66064L13.1512 8.15381C13.8545 7.44983 14.2496 6.49573 14.25 5.50073C14.2504 4.50574 13.8558 3.55127 13.1531 2.84692L13.1531 2.8457Z" fill="#737373" fill-opacity="1.000000" fill-rule="nonzero"/>
	</g>
</svg>
