<svg width="20.000000" height="20.000000" viewBox="0 0 20 20" fill="none" xmlns="http://www.w3.org/2000/svg" xmlns:xlink="http://www.w3.org/1999/xlink">
	<desc>
			Created with Pixso.
	</desc>
	<defs>
		<clipPath id="clip86_23726">
			<rect id="ph:link-bold" width="20.000000" height="20.000000" fill="white" fill-opacity="0"/>
		</clipPath>
	</defs>
	<rect id="ph:link-bold" width="20.000000" height="20.000000" fill="#FFFFFF" fill-opacity="0"/>
	<g clip-path="url(#clip86_23726)">
		<path id="Vector" d="M10.6541 14.6509C10.7415 14.738 10.8108 14.8416 10.8582 14.9553C10.9053 15.0693 10.9297 15.1917 10.9297 15.3149C10.9297 15.4382 10.9053 15.5605 10.8582 15.6746C10.8108 15.7883 10.7415 15.8918 10.6541 15.979L10.1899 16.4431C9.31055 17.3225 8.11792 17.8164 6.87427 17.8164C5.63062 17.8164 4.43799 17.3225 3.55859 16.4431C2.6792 15.5637 2.1853 14.3711 2.1853 13.1274C2.1853 11.8838 2.6792 10.6912 3.55859 9.81177L5.44312 7.92822C6.28809 7.0813 7.4248 6.58936 8.62061 6.55322C9.81641 6.51733 10.9807 6.93994 11.875 7.73438C11.9675 7.81665 12.0427 7.91602 12.0967 8.0271C12.1504 8.13843 12.1819 8.25903 12.1892 8.38232C12.1965 8.50562 12.1794 8.62915 12.1389 8.74585C12.0984 8.86255 12.0354 8.97021 11.9531 9.0625C11.8711 9.15503 11.7717 9.23022 11.6604 9.28418C11.5493 9.33789 11.4287 9.36938 11.3054 9.37671C11.1819 9.38403 11.0583 9.36694 10.9417 9.32642C10.825 9.28589 10.7175 9.2229 10.625 9.14062C10.0889 8.66431 9.39062 8.41113 8.67383 8.43237C7.95679 8.45361 7.27515 8.74829 6.76807 9.25562L4.88525 11.1367C4.35767 11.6643 4.06128 12.3799 4.06128 13.126C4.06128 13.8718 4.35767 14.5874 4.88525 15.115C5.41284 15.6426 6.12817 15.9387 6.87427 15.9387C7.62036 15.9387 8.33594 15.6426 8.86328 15.115L9.32739 14.6509C9.41455 14.5637 9.51782 14.4946 9.63159 14.4473C9.74561 14.4001 9.86743 14.376 9.99072 14.376C10.114 14.376 10.2358 14.4001 10.3496 14.4473C10.4636 14.4946 10.5669 14.5637 10.6541 14.6509ZM16.4414 3.55713C15.5615 2.6792 14.3691 2.18604 13.126 2.18604C11.8828 2.18604 10.6904 2.6792 9.8103 3.55713L9.34619 4.02124C9.17017 4.19727 9.07104 4.43628 9.07104 4.6853C9.07104 4.93433 9.17017 5.1731 9.34619 5.34937C9.52222 5.52539 9.76123 5.62427 10.0103 5.62427C10.2593 5.62427 10.4983 5.52539 10.6743 5.34937L11.1384 4.88525C11.666 4.35767 12.3813 4.06128 13.1274 4.06128C13.8735 4.06128 14.5889 4.35767 15.1165 4.88525C15.644 5.41284 15.9404 6.12817 15.9404 6.87427C15.9404 7.62036 15.644 8.33594 15.1165 8.86328L13.2329 10.7478C12.7253 11.2549 12.0432 11.5491 11.3262 11.5698C10.6091 11.5906 9.91113 11.3364 9.375 10.8594C9.28271 10.7773 9.17505 10.7144 9.05835 10.6738C8.94165 10.6333 8.81812 10.6162 8.69482 10.6235C8.57153 10.6306 8.45093 10.6621 8.3396 10.7161C8.22852 10.77 8.12915 10.8452 8.04688 10.9375C7.96484 11.03 7.90186 11.1375 7.86133 11.2542C7.8208 11.3708 7.80371 11.4946 7.81104 11.6179C7.81812 11.7412 7.84961 11.8618 7.90356 11.9729C7.95752 12.0842 8.03271 12.1836 8.125 12.2656C9.0188 13.0601 10.1824 13.4829 11.3777 13.4478C12.573 13.4124 13.7095 12.9216 14.5547 12.0759L16.4392 10.1924C17.3181 9.3125 17.8123 8.11963 17.8125 6.87598C17.813 5.63232 17.3198 4.43921 16.4414 3.55859L16.4414 3.55713Z" fill="#737373" fill-opacity="1.000000" fill-rule="nonzero"/>
	</g>
</svg>
