<svg width="16.000000" height="16.000000" viewBox="0 0 16 16" fill="none" xmlns="http://www.w3.org/2000/svg" xmlns:xlink="http://www.w3.org/1999/xlink">
	<desc>
			Created with Pixso.
	</desc>
	<defs>
		<clipPath id="clip111_149">
			<rect id="ph:lock-key-fill" width="16.000000" height="16.000000" fill="white" fill-opacity="0"/>
		</clipPath>
	</defs>
	<rect id="ph:lock-key-fill" width="16.000000" height="16.000000" fill="#FFFFFF" fill-opacity="0"/>
	<g clip-path="url(#clip111_149)">
		<path id="Vector" d="M13 5L11 5L11 3.5C11 2.70435 10.6841 1.94128 10.1211 1.37866C9.55859 0.81604 8.79541 0.5 8 0.5C7.20459 0.5 6.44141 0.81604 5.87891 1.37866C5.31592 1.94128 5 2.70435 5 3.5L5 5L3 5C2.73486 5 2.48047 5.10535 2.29297 5.29285C2.10547 5.48047 2 5.73474 2 6L2 13C2 13.2653 2.10547 13.5195 2.29297 13.7072C2.48047 13.8947 2.73486 14 3 14L13 14C13.2651 14 13.5195 13.8947 13.707 13.7072C13.8945 13.5195 14 13.2653 14 13L14 6C14 5.73474 13.8945 5.48047 13.707 5.29285C13.5195 5.10535 13.2651 5 13 5ZM8.5 9.91443L8.5 11.5C8.5 11.6326 8.44727 11.7598 8.35352 11.8535C8.25977 11.9473 8.13281 12 8 12C7.86719 12 7.74023 11.9473 7.64648 11.8535C7.55273 11.7598 7.5 11.6326 7.5 11.5L7.5 9.91443C7.1665 9.79639 6.88525 9.56433 6.70605 9.25916C6.52734 8.95398 6.46191 8.59521 6.52148 8.24646C6.58154 7.89771 6.7627 7.58142 7.0332 7.35327C7.30371 7.12524 7.646 7.00012 8 7.00012C8.354 7.00012 8.69629 7.12524 8.9668 7.35327C9.2373 7.58142 9.41846 7.89771 9.47852 8.24646C9.53809 8.59521 9.47266 8.95398 9.29395 9.25916C9.11475 9.56433 8.8335 9.79639 8.5 9.91443ZM10 5L6 5L6 3.5C6 2.9696 6.21094 2.46082 6.58594 2.08582C6.96094 1.71069 7.46973 1.5 8 1.5C8.53027 1.5 9.03906 1.71069 9.41406 2.08582C9.78906 2.46082 10 2.9696 10 3.5L10 5Z" fill="#737373" fill-opacity="1.000000" fill-rule="nonzero"/>
	</g>
</svg>
