<svg width="20.000000" height="20.000000" viewBox="0 0 20 20" fill="none" xmlns="http://www.w3.org/2000/svg" xmlns:xlink="http://www.w3.org/1999/xlink">
	<desc>
			Created with Pixso.
	</desc>
	<defs>
		<clipPath id="clip26_764">
			<rect id="ph:user-circle-bold" width="20.000000" height="20.000000" fill="white" fill-opacity="0"/>
		</clipPath>
	</defs>
	<rect id="ph:user-circle-bold" width="20.000000" height="20.000000" fill="#FFFFFF" fill-opacity="0"/>
	<g clip-path="url(#clip26_764)">
		<path id="Vector" d="M10 1.5625C8.3313 1.5625 6.69995 2.05737 5.3125 2.9845C3.9248 3.91162 2.84351 5.22937 2.20483 6.77112C1.56616 8.31287 1.39917 10.0093 1.72461 11.6461C2.05029 13.2828 2.85376 14.7862 4.03369 15.9662C5.21387 17.1462 6.71729 17.9498 8.354 18.2754C9.99072 18.601 11.6873 18.4338 13.229 17.7952C14.7708 17.1566 16.0884 16.0752 17.0156 14.6876C17.9426 13.3001 18.4375 11.6688 18.4375 10C18.4351 7.763 17.5452 5.61835 15.9634 4.0365C14.3816 2.45471 12.2371 1.565 10 1.5625ZM6.21631 15.3571C6.65161 14.762 7.22095 14.2779 7.87842 13.9442C8.53589 13.6106 9.2627 13.4366 10 13.4366C10.7373 13.4366 11.4641 13.6106 12.1216 13.9442C12.7791 14.2779 13.3484 14.762 13.7837 15.3571C12.6777 16.1412 11.3557 16.5625 10 16.5625C8.64429 16.5625 7.32227 16.1412 6.21631 15.3571ZM7.8125 9.375C7.8125 8.94238 7.94092 8.51941 8.18115 8.15967C8.42163 7.79999 8.76318 7.51959 9.16284 7.354C9.5625 7.18848 10.0024 7.14514 10.4268 7.22955C10.8511 7.31396 11.241 7.52228 11.5469 7.82819C11.8528 8.13416 12.061 8.52393 12.1455 8.94824C12.23 9.37256 12.1865 9.81238 12.021 10.2121C11.8555 10.6118 11.575 10.9535 11.2153 11.1938C10.8555 11.4342 10.4326 11.5625 10 11.5625C9.41992 11.5625 8.86353 11.332 8.45312 10.9218C8.04297 10.5115 7.8125 9.95514 7.8125 9.375ZM15.1562 14.0578C14.5486 13.285 13.7742 12.6595 12.8906 12.2281C13.4536 11.658 13.8354 10.934 13.988 10.1474C14.1409 9.36072 14.0574 8.54651 13.7483 7.80719C13.4395 7.06781 12.9187 6.43634 12.2517 5.99225C11.5847 5.5481 10.8013 5.3111 10 5.3111C9.19873 5.3111 8.41528 5.5481 7.74829 5.99225C7.0813 6.43634 6.56055 7.06781 6.25171 7.80719C5.94263 8.54651 5.85913 9.36072 6.01196 10.1474C6.16455 10.934 6.54639 11.658 7.10938 12.2281C6.22583 12.6595 5.45142 13.285 4.84375 14.0578C4.08057 13.0903 3.60522 11.9274 3.47192 10.7023C3.33887 9.47711 3.55347 8.23926 4.09106 7.13037C4.62866 6.02148 5.46777 5.08636 6.51196 4.43213C7.5564 3.77783 8.76367 3.43085 9.99609 3.43085C11.2285 3.43085 12.4358 3.77783 13.4802 4.43213C14.5244 5.08636 15.3635 6.02148 15.9011 7.13037C16.4387 8.23926 16.6533 9.47711 16.5203 10.7023C16.387 11.9274 15.9116 13.0903 15.1484 14.0578L15.1562 14.0578Z" fill="#737373" fill-opacity="1.000000" fill-rule="nonzero"/>
	</g>
</svg>
