<svg width="307.000000" height="631.000000" viewBox="0 0 307 631" fill="none" xmlns="http://www.w3.org/2000/svg" xmlns:xlink="http://www.w3.org/1999/xlink">
	<desc>
			Created with Pixso.
	</desc>
	<defs/>
	<path id="Rectangle 15" d="M0 54C0 24.1766 24.1765 0 54 0L253 0C282.823 0 307 24.1766 307 54L307 577C307 606.823 282.823 631 253 631L54 631C24.1765 631 0 606.823 0 577L0 54Z" fill="#EEEEEE" fill-opacity="0" fill-rule="nonzero"/>
	<path id="Rectangle 15" d="M54 0C24.1765 0 0 24.1766 0 54L0 577C0 606.823 24.1765 631 54 631L253 631C282.823 631 307 606.823 307 577L307 54C307 24.1766 282.823 0 253 0L54 0ZM54 1L253 1Q263.978 1 273.347 4.88141Q282.716 8.76227 290.477 16.5233Q298.239 24.2858 302.12 33.6559Q306 43.0244 306 54L306 577Q306 587.979 302.118 597.35Q298.237 606.717 290.477 614.477Q282.716 622.238 273.347 626.119Q263.978 630 253 630L54 630Q43.0239 630 33.6553 626.12Q24.2854 622.239 16.5234 614.477Q8.76318 606.717 4.88232 597.35Q1 587.979 1 577L1 54Q1 43.0236 4.88062 33.6545Q8.76147 24.2852 16.5234 16.5233Q24.2852 8.76166 33.6543 4.8808Q43.0234 1 54 1Z" fill="#737373" fill-opacity="1.000000" fill-rule="evenodd"/>
	<path id="Subtract" d="M56 10C31.1472 10 11 30.1472 11 55L11 576C11 600.853 31.1472 621 56 621L251 621C275.853 621 296 600.853 296 576L296 55C296 30.1472 275.853 10 251 10L227 10C220.373 10 215 15.3726 215 22C215 29.732 208.732 36 201 36L106 36C98.2681 36 92 29.732 92 22C92 15.3726 86.6274 10 80 10L56 10Z" fill="#FFFFFF" fill-opacity="1.000000" fill-rule="nonzero"/>
	<path id="Subtract" d="M56 10C31.1472 10 11 30.1472 11 55L11 576C11 600.853 31.1472 621 56 621L251 621C275.853 621 296 600.853 296 576L296 55C296 30.1472 275.853 10 251 10L227 10C220.373 10 215 15.3726 215 22C215 29.732 208.732 36 201 36L106 36C98.2681 36 92 29.732 92 22C92 15.3726 86.6274 10 80 10L56 10ZM39.1091 14.2218Q46.8875 11 56 11L80 11Q82.2783 11 84.2229 11.8055Q86.1672 12.611 87.7781 14.2218Q89.3892 15.8327 90.1946 17.7773Q91 19.7218 91 22Q91 25.1066 92.0984 27.7582Q93.1968 30.4099 95.3933 32.6066Q97.5901 34.8032 100.242 35.9016Q102.893 37 106 37L201 37Q204.106 37 206.758 35.9017Q209.41 34.8035 211.607 32.6066Q213.803 30.4099 214.902 27.7582Q216 25.1066 216 22Q216 19.7219 216.805 17.7773Q217.611 15.8328 219.222 14.2218Q220.833 12.6109 222.777 11.8054Q224.722 11 227 11L251 11Q260.113 11 267.892 14.2222Q275.669 17.444 282.113 23.8873Q288.557 30.3316 291.779 38.1105Q295 45.8882 295 55L295 576Q295 585.11 291.78 592.886Q288.558 600.667 282.113 607.113Q275.669 613.556 267.892 616.778Q260.113 620 251 620L56 620Q46.8882 620 39.1104 616.779Q31.3315 613.557 24.8872 607.113Q18.4441 600.669 15.2222 592.892Q12 585.113 12 576L12 55Q12 45.8872 15.2219 38.1091Q18.4436 30.3309 24.8872 23.8873Q31.3311 17.4436 39.1091 14.2218Z" fill="#737373" fill-opacity="1.000000" fill-rule="evenodd"/>
	<circle id="Ellipse 3" cx="153.000000" cy="111.500000" r="48.000000" fill="#EEEEEE" fill-opacity="1.000000"/>
	<rect id="Rectangle 6" x="73.000000" y="184.500000" rx="8.000000" width="160.000000" height="16.000000" fill="#EEEEEE" fill-opacity="1.000000"/>
	<rect id="Rectangle 7" x="117.000000" y="213.500000" rx="4.000000" width="72.000000" height="8.000000" fill="#EEEEEE" fill-opacity="1.000000"/>
	<rect id="Rectangle 7" x="34.500000" y="277.500000" rx="8.000000" width="237.000000" height="44.000000" fill="#EEEEEE" fill-opacity="1.000000"/>
	<rect id="Rectangle 8" x="34.500000" y="341.500000" rx="8.000000" width="237.000000" height="44.000000" fill="#EEEEEE" fill-opacity="1.000000"/>
	<rect id="Rectangle 9" x="34.500000" y="405.500000" rx="8.000000" width="237.000000" height="44.000000" fill="#EEEEEE" fill-opacity="1.000000"/>
	<rect id="Rectangle 10" x="34.500000" y="469.500000" rx="8.000000" width="237.000000" height="44.000000" fill="#EEEEEE" fill-opacity="1.000000"/>
	<rect id="Rectangle 11" x="34.500000" y="533.500000" rx="8.000000" width="237.000000" height="44.000000" fill="#EEEEEE" fill-opacity="1.000000"/>
</svg>
