<svg width="16.000000" height="16.000000" viewBox="0 0 16 16" fill="none" xmlns="http://www.w3.org/2000/svg" xmlns:xlink="http://www.w3.org/1999/xlink">
	<desc>
			Created with Pixso.
	</desc>
	<defs>
		<clipPath id="clip86_26235">
			<rect id="ri:codepen-line" width="16.000000" height="16.000000" fill="white" fill-opacity="0"/>
		</clipPath>
	</defs>
	<rect id="ri:codepen-line" width="16.000000" height="16.000000" fill="#FFFFFF" fill-opacity="0"/>
	<g clip-path="url(#clip86_26235)">
		<path id="Vector" d="M11 8.80127L8.66602 10.3564L8.66602 12.7539L12.7979 10L11 8.80127ZM9.79785 8L8 6.80127L6.20215 8L8 9.19824L9.79785 8ZM13.333 7.24512L12.2021 8L13.333 8.75439L13.333 7.24512ZM12.7979 6L8.66602 3.24561L8.66602 5.64307L11 7.19824L12.7979 6ZM5 7.19824L7.33301 5.64307L7.33301 3.24561L3.20215 6L5 7.19824ZM3.20215 10L7.33301 12.7539L7.33301 10.3564L5 8.80127L3.20215 10ZM2.66602 8.75439L3.79785 8L2.66602 7.24512L2.66602 8.75439ZM1.33301 6C1.33301 5.89014 1.36035 5.78223 1.41211 5.68506C1.46387 5.58838 1.53809 5.50586 1.62988 5.44531L7.62988 1.44531C7.73926 1.37207 7.86816 1.33301 8 1.33301C8.13184 1.33301 8.25977 1.37207 8.37012 1.44531L14.3701 5.44531C14.4609 5.50586 14.5361 5.58838 14.5879 5.68506C14.6396 5.78223 14.666 5.89014 14.666 6L14.666 10C14.666 10.1094 14.6396 10.2178 14.5879 10.3145C14.5361 10.4111 14.4609 10.4937 14.3701 10.5542L8.37012 14.5542C8.25977 14.6274 8.13184 14.6665 8 14.6665C7.86816 14.6665 7.73926 14.6274 7.62988 14.5542L1.62988 10.5542C1.53809 10.4937 1.46387 10.4111 1.41211 10.3145C1.36035 10.2178 1.33301 10.1094 1.33301 10L1.33301 6Z" fill="#737373" fill-opacity="1.000000" fill-rule="nonzero"/>
	</g>
</svg>
