<svg width="16.000000" height="16.000000" viewBox="0 0 16 16" fill="none" xmlns="http://www.w3.org/2000/svg" xmlns:xlink="http://www.w3.org/1999/xlink">
	<desc>
			Created with Pixso.
	</desc>
	<defs>
		<clipPath id="clip86_26249">
			<rect id="ri:gitlab-fill" width="16.000000" height="16.000000" fill="white" fill-opacity="0"/>
		</clipPath>
	</defs>
	<rect id="ri:gitlab-fill" width="16.000000" height="16.000000" fill="#FFFFFF" fill-opacity="0"/>
	<g clip-path="url(#clip86_26249)">
		<path id="Vector" d="M14.4424 6.6582L14.4229 6.61035L12.6104 1.88086C12.5742 1.7876 12.5088 1.70801 12.4238 1.6543C12.3398 1.60059 12.2402 1.5752 12.1396 1.58154C12.04 1.58594 11.9434 1.62207 11.8652 1.68457C11.7871 1.74707 11.7305 1.83301 11.7041 1.92969L10.4795 5.68018L5.52148 5.68018L4.29492 1.93018C4.26855 1.8335 4.21289 1.74756 4.13477 1.68457C4.05664 1.62207 3.96094 1.58545 3.86035 1.58057C3.76074 1.5752 3.66113 1.60156 3.57715 1.65527C3.49219 1.70898 3.42676 1.78809 3.38965 1.88086L1.57422 6.6167L1.55566 6.66357C1.29492 7.3457 1.26367 8.09375 1.46484 8.79541C1.66602 9.49756 2.08984 10.1152 2.67188 10.5557L2.67871 10.5601L2.69434 10.5728L5.45898 12.6421L6.82617 13.6772L7.65723 14.3066C7.75488 14.3804 7.87402 14.4204 7.99609 14.4204C8.11816 14.4204 8.2373 14.3804 8.33496 14.3066L9.16602 13.6772L10.5322 12.6421L13.3135 10.5601L13.3203 10.5547C13.9053 10.1147 14.3301 9.49707 14.5332 8.79395C14.7354 8.09082 14.7031 7.34131 14.4424 6.6582Z" fill="#737373" fill-opacity="1.000000" fill-rule="nonzero"/>
	</g>
</svg>
