<svg width="16.000000" height="16.000000" viewBox="0 0 16 16" fill="none" xmlns="http://www.w3.org/2000/svg" xmlns:xlink="http://www.w3.org/1999/xlink">
	<desc>
			Created with Pixso.
	</desc>
	<defs>
		<clipPath id="clip86_26131">
			<rect id="ri:youtube-fill" width="16.000000" height="16.000000" fill="white" fill-opacity="0"/>
		</clipPath>
	</defs>
	<rect id="ri:youtube-fill" width="16.000000" height="16.000000" fill="#FFFFFF" fill-opacity="0"/>
	<g clip-path="url(#clip86_26131)">
		<path id="Vector" d="M8.16211 2.6665C8.51855 2.66846 9.40918 2.67725 10.3555 2.71533L10.6914 2.72998C11.6445 2.77441 12.5967 2.85205 13.0693 2.9834C13.6992 3.16064 14.1934 3.67627 14.3613 4.33105C14.6279 5.37109 14.6611 7.39941 14.665 7.89062L14.666 7.9917L14.666 8.10791C14.6611 8.59912 14.6279 10.6279 14.3613 11.667C14.1914 12.3237 13.6963 12.8403 13.0693 13.0151C12.5967 13.1465 11.6445 13.2236 10.6914 13.2686L10.3555 13.2837C9.40918 13.3213 8.51855 13.3306 8.16211 13.332L8.00586 13.3325L7.83594 13.3325C7.08203 13.3276 3.93164 13.2939 2.92871 13.0151C2.2998 12.8379 1.80469 12.3218 1.63672 11.667C1.37012 10.627 1.33691 8.59912 1.33301 8.10791L1.33301 7.89062C1.33691 7.39941 1.37012 5.37061 1.63672 4.33105C1.80664 3.67432 2.30176 3.15771 2.92969 2.98389C3.93164 2.70459 7.08301 2.67041 7.83594 2.6665L8.16211 2.6665ZM6.66602 5.6665L6.66602 10.333L10.666 8L6.66602 5.6665Z" fill="#737373" fill-opacity="1.000000" fill-rule="nonzero"/>
	</g>
</svg>
