<svg width="16.000000" height="16.000000" viewBox="0 0 16 16" fill="none" xmlns="http://www.w3.org/2000/svg" xmlns:xlink="http://www.w3.org/1999/xlink">
	<desc>
			Created with Pixso.
	</desc>
	<defs>
		<clipPath id="clip86_26242">
			<rect id="simple-icons:freecodecamp" width="16.000000" height="16.000000" fill="white" fill-opacity="0"/>
		</clipPath>
	</defs>
	<rect id="simple-icons:freecodecamp" width="16.000000" height="16.000000" fill="#FFFFFF" fill-opacity="0"/>
	<g clip-path="url(#clip86_26242)">
		<path id="Vector" d="M13.2568 2.604C13.1719 2.60596 13.0889 2.63379 13.0205 2.68408C12.9678 2.7373 12.9131 2.81445 12.9131 2.89258C12.9131 3.02588 13.0703 3.2085 13.3623 3.50781C14.5771 4.67725 15.1875 6.10986 15.1836 7.8374C15.1787 9.74854 14.5371 11.2842 13.2871 12.4731C13.0244 12.7085 12.917 12.8936 12.916 13.0513C12.916 13.1289 12.9697 13.2095 13.0225 13.2866C13.0859 13.3486 13.1699 13.3867 13.2578 13.3945C13.5479 13.3945 13.9512 13.0532 14.4805 12.3887C15.5078 11.1289 15.9736 9.73682 15.999 7.83936C16.0234 5.94141 15.4277 4.65479 14.2637 3.32617C13.8438 2.85156 13.4951 2.60449 13.2568 2.604ZM2.74414 2.60547C2.50488 2.60547 2.15625 2.85205 1.7373 3.32715C0.572266 4.65576 -0.0234375 5.94287 0.000976562 7.84082C0.0273438 9.73779 0.492188 11.1294 1.52051 12.3901C2.04785 13.0547 2.45312 13.3965 2.74219 13.396C2.83008 13.3882 2.91309 13.3501 2.97656 13.2881C3.03027 13.2104 3.08301 13.1299 3.08301 13.0527C3.08301 12.8945 2.97559 12.71 2.71289 12.4751C1.46387 11.2852 0.821289 9.75049 0.816406 7.83887C0.8125 6.11133 1.42383 4.67871 2.6377 3.50928C2.92969 3.20996 3.08691 3.02783 3.08691 2.89404C3.08691 2.81592 3.0332 2.73877 2.97949 2.68555C2.91113 2.63525 2.82812 2.60693 2.74316 2.60547L2.74414 2.60547ZM7.44824 3.20215C7.44824 3.20215 7.88477 4.58936 5.68164 7.68652C3.57812 10.6421 6.37891 12.4531 6.63672 12.6108C6.44922 12.4907 5.30273 11.6108 6.9043 8.99512C7.21582 8.48193 7.62207 8.01514 8.12695 6.96777C8.12695 6.96777 8.57422 7.59863 8.34082 8.9668C7.99219 11.0342 9.85449 10.4429 9.88379 10.4712C10.5342 11.2378 9.34473 12.5845 9.27246 12.6265C9.2002 12.6675 12.6689 10.54 10.2051 7.33691C10.0361 7.50537 9.81641 8.29785 9.36035 8.18066C8.9043 8.06445 10.7764 5.85156 7.44824 3.20215ZM6.63672 12.6108C6.65234 12.6211 6.66211 12.6265 6.66211 12.6265L6.63672 12.6108Z" fill="#737373" fill-opacity="1.000000" fill-rule="nonzero"/>
	</g>
</svg>
