<svg width="16.000000" height="16.000000" viewBox="0 0 16 16" fill="none" xmlns="http://www.w3.org/2000/svg" xmlns:xlink="http://www.w3.org/1999/xlink">
	<desc>
			Created with Pixso.
	</desc>
	<defs>
		<clipPath id="clip86_26215">
			<rect id="skill-icons:devto-dark" width="16.000000" height="16.000000" fill="white" fill-opacity="0"/>
		</clipPath>
	</defs>
	<rect id="skill-icons:devto-dark" width="16.000000" height="16.000000" fill="#FFFFFF" fill-opacity="0"/>
	<g clip-path="url(#clip86_26215)">
		<path id="Vector" d="M3.75 0L12.25 0C14.3213 0 16 1.67871 16 3.75L16 12.25C16 14.3213 14.3213 16 12.25 16L3.75 16C1.67871 16 0 14.3213 0 12.25L0 3.75C0 1.67871 1.67871 0 3.75 0Z" fill="#737373" fill-opacity="1.000000" fill-rule="evenodd"/>
		<path id="Vector" d="M5.46094 9.20117C5.46094 9.83984 5.06738 10.8076 3.82227 10.8052L2.25 10.8052L2.25 5.1875L3.85547 5.1875C5.05664 5.1875 5.45996 6.15381 5.46094 6.79297L5.46094 9.20117ZM3.91113 6.23877C4.04297 6.23877 4.1748 6.28809 4.30566 6.38623C4.4375 6.48486 4.50293 6.63281 4.50391 6.82959L4.50391 9.19482C4.50391 9.39209 4.43848 9.53955 4.30664 9.63818C4.1748 9.73633 4.04297 9.78564 3.91211 9.78564L3.32031 9.78564L3.32031 6.23877L3.91113 6.23877Z" fill="#FFFFFF" fill-opacity="1.000000" fill-rule="evenodd"/>
		<path id="Vector" d="M8.87207 6.19092L7.06738 6.19092L7.06738 7.49512L8.1709 7.49512L8.1709 8.49902L7.06738 8.49902L7.06738 9.80322L8.87305 9.80322L8.87305 10.8071L6.76562 10.8071C6.3877 10.8174 6.07324 10.5176 6.06348 10.1387L6.06348 5.89111C6.05469 5.51221 6.35352 5.19775 6.73145 5.18848L8.87305 5.18848L8.87207 6.19092ZM12.3838 10.1055C11.9365 11.1494 11.1357 10.9414 10.7764 10.1055L9.4707 5.18896L10.5752 5.18896L11.5811 9.0498L12.583 5.18896L13.6875 5.18896L12.3838 10.1055Z" fill="#FFFFFF" fill-opacity="1.000000" fill-rule="nonzero"/>
	</g>
</svg>
