<svg width="16.000000" height="16.000000" viewBox="0 0 16 16" fill="none" xmlns="http://www.w3.org/2000/svg" xmlns:xlink="http://www.w3.org/1999/xlink">
	<desc>
			Created with Pixso.
	</desc>
	<defs>
		<clipPath id="clip86_26126">
			<rect id="teenyicons:github-solid" width="16.000000" height="16.000000" fill="white" fill-opacity="0"/>
		</clipPath>
	</defs>
	<rect id="teenyicons:github-solid" width="16.000000" height="16.000000" fill="#FFFFFF" fill-opacity="0"/>
	<g clip-path="url(#clip86_26126)">
		<path id="Vector" d="M9.98242 2.2876C8.67871 1.98486 7.32227 1.98486 6.01855 2.2876C5.26562 1.82617 4.69043 1.61377 4.27246 1.52393C4.09375 1.48389 3.91113 1.46484 3.72852 1.46777C3.64551 1.46973 3.5625 1.47998 3.48047 1.49756L3.4707 1.49951L3.46582 1.50146L3.46289 1.50146L3.60938 2.01465L3.46289 1.50293C3.3877 1.52393 3.31836 1.56104 3.25977 1.6123C3.2002 1.66309 3.15332 1.72607 3.12109 1.79736C2.80664 2.50195 2.74707 3.29395 2.95215 4.03809C2.4209 4.68164 2.13184 5.49072 2.13379 6.3252C2.13379 7.98145 2.62207 9.09521 3.45508 9.81104C4.03906 10.3125 4.74707 10.5791 5.45703 10.7314C5.3457 11.0601 5.30371 11.4077 5.33398 11.7534L5.33398 12.3911C4.89941 12.4819 4.59863 12.4531 4.38477 12.3828C4.11621 12.2944 3.91113 12.1162 3.71387 11.8599C3.61035 11.7222 3.51367 11.5791 3.42578 11.4312L3.36426 11.332C3.28809 11.2046 3.20801 11.0786 3.12598 10.9546C2.92285 10.6548 2.62207 10.2793 2.13574 10.1514L1.61914 10.0156L1.34863 11.0483L1.86523 11.1836C1.9502 11.2051 2.06152 11.2852 2.24316 11.5527C2.31348 11.6587 2.38184 11.7661 2.44629 11.875L2.51855 11.9922C2.61914 12.1543 2.73438 12.3335 2.86719 12.5088C3.1377 12.8608 3.50586 13.2158 4.05176 13.396C4.4248 13.52 4.84961 13.5498 5.33398 13.4751L5.33398 15.4663C5.33398 15.6079 5.38965 15.7437 5.49023 15.8438C5.58984 15.9438 5.72559 16 5.86719 16L10.1338 16C10.2754 16 10.4111 15.9438 10.5107 15.8438C10.6113 15.7437 10.667 15.6079 10.667 15.4663L10.667 11.666C10.667 11.3301 10.6523 11.0215 10.5576 10.7349C11.2646 10.5854 11.9678 10.3188 12.5479 9.81738C13.3799 9.09619 13.8672 7.97217 13.8672 6.30615L13.8672 6.30469C13.8643 5.47754 13.5752 4.67627 13.0479 4.03809C13.2529 3.29443 13.1924 2.50244 12.8779 1.79834C12.8467 1.72705 12.7998 1.66357 12.7412 1.61279C12.6816 1.56152 12.6133 1.52441 12.5381 1.50293L12.3916 2.01465C12.5381 1.50293 12.5371 1.50293 12.5361 1.50293L12.5342 1.50146L12.5293 1.49951L12.5195 1.49756C12.4932 1.49072 12.4668 1.48535 12.4395 1.48145C12.3838 1.47314 12.3281 1.46875 12.2715 1.46777C12.0879 1.46484 11.9062 1.48389 11.7275 1.52393C11.3105 1.61377 10.7354 1.82617 9.98242 2.2876Z" fill="#737373" fill-opacity="1.000000" fill-rule="nonzero"/>
	</g>
</svg>
